<?xml version="1.0" encoding="utf-8"?>
<!-- Generator: Adobe Illustrator 16.0.0, SVG Export Plug-In . SVG Version: 6.00 Build 0)  -->
<!DOCTYPE svg PUBLIC "-//W3C//DTD SVG 1.1//EN" "http://www.w3.org/Graphics/SVG/1.1/DTD/svg11.dtd">
<svg version="1.1" id="Calque_1" xmlns="http://www.w3.org/2000/svg" xmlns:xlink="http://www.w3.org/1999/xlink" x="0px" y="0px"
	 width="58.833px" height="53.5px" viewBox="0 0 58.833 53.5" enable-background="new 0 0 58.833 53.5" xml:space="preserve">
<g>
	<path fill="#333333" stroke="#1A171B" stroke-width="0.5" stroke-miterlimit="10" d="M27.765,33.435
		c0.656-0.824,1.704-1.983,1.655-3.115c-0.055-1.287-1.247-2.638-2.133-3.483c-2.049-1.955-5.566-0.92-7.433,0.821
		c-0.885,0.896-1.638,1.809-1.485,3.144c0.134,1.175,1.05,3.62,2.069,4.327c0.878,0.609,2.985,0.516,3.992,0.472
		C25.98,35.53,26.832,34.608,27.765,33.435z M25.402,27.058c-0.389,0.483-0.771,0.973-1.165,1.451
		c-0.403,0.49-0.905,0.898-1.311,1.379c-0.327-0.047-0.677,0.002-1.067,0.029c-0.724,0.048-1.452,0.072-2.175,0.144
		c0.141-0.573,0.437-1.136,0.934-1.641C21.791,27.325,23.769,26.616,25.402,27.058z M22.642,34.417
		c-1.677-0.305-2.9-1.719-3.044-3.275c0.936-0.116,2.896-0.547,3.533,0.139c0.752,0.81,1.053,2.092,1.697,3.003
		C24.185,34.505,23.467,34.567,22.642,34.417z M25.791,33.794c-0.005-0.008-0.005-0.016-0.011-0.024
		c-0.73-1.013-1.089-2.375-1.917-3.317c0.371-0.398,0.791-0.759,1.138-1.18c0.471-0.572,0.921-1.162,1.392-1.734
		c0.005-0.006,0.005-0.013,0.01-0.02c0.04,0.027,0.083,0.051,0.122,0.081c0.558,0.422,1.687,1.782,1.778,2.562
		c0.084,0.721-0.588,1.537-0.967,2.063C26.869,32.872,26.36,33.404,25.791,33.794z"/>
	<path fill="#333333" stroke="#1A171B" stroke-width="0.5" stroke-miterlimit="10" d="M33.808,38.337
		c-2.025-0.972-5.577-1.145-7.055,0.909c-0.731,1.017-1.549,2.921-1.337,4.2c0.209,1.266,1.531,2.064,2.524,2.744
		c1.219,0.832,2.352,1.495,3.834,1.087c0.998-0.275,2.988-0.764,3.674-1.626c0.793-0.995,0.932-3.625,0.685-4.822
		C35.868,39.554,34.896,38.909,33.808,38.337z M33.264,39.269c0.56,0.295,1.007,0.763,1.327,1.314
		c-0.648,0.139-1.291,0.313-1.934,0.47c-0.405,0.099-0.803,0.156-1.14,0.316c-0.531-0.329-1.121-0.571-1.648-0.916
		c-0.533-0.349-1.058-0.712-1.588-1.065C29.72,38.49,31.883,38.606,33.264,39.269z M26.472,43.257
		c-0.159-0.797,0.478-2.439,0.985-3.136c0.013,0.01,0.018,0.022,0.032,0.032c0.617,0.403,1.219,0.828,1.836,1.232
		c0.469,0.306,0.986,0.53,1.469,0.807c-0.492,1.15-0.432,2.533-0.831,3.714c-0.007,0.018-0.002,0.032-0.007,0.05
		c-0.51-0.15-1.007-0.379-1.471-0.697C27.915,44.866,26.636,44.087,26.472,43.257z M33.753,45.378
		c-0.861,0.577-1.804,0.816-2.737,0.768c0.352-1.084,0.268-2.372,0.731-3.404c0.252-0.564,0.866-0.566,1.42-0.703
		c0.61-0.15,1.221-0.316,1.838-0.442C35.362,42.966,35.029,44.522,33.753,45.378z"/>
	<path fill="#333333" stroke="#1A171B" stroke-width="0.5" stroke-miterlimit="10" d="M32.55,29.551
		c1.012,0.137,1.932-0.597,2.123-1.58c0.2-1.03-0.389-1.713-1.3-2.075c-0.102-0.041-0.19-0.041-0.271-0.025
		c-1.013-0.063-2.072,0.408-2.306,1.483C30.567,28.402,31.553,29.417,32.55,29.551z M31.876,27.484
		c0.166-0.512,0.763-0.573,1.229-0.54c0.372,0.153,0.599,0.389,0.514,0.818c-0.086,0.436-0.467,0.78-0.924,0.719
		C32.262,28.422,31.722,27.958,31.876,27.484z"/>
	<path fill="#333333" stroke="#1A171B" stroke-width="0.5" stroke-miterlimit="10" d="M36.302,31.769
		c-0.102-0.041-0.19-0.041-0.271-0.025c-1.013-0.063-2.072,0.408-2.307,1.483c-0.229,1.049,0.758,2.063,1.754,2.197
		c1.012,0.137,1.932-0.597,2.123-1.58C37.802,32.813,37.212,32.13,36.302,31.769z M36.546,33.636
		c-0.086,0.436-0.467,0.78-0.924,0.719c-0.433-0.06-0.973-0.523-0.818-0.997c0.166-0.512,0.764-0.573,1.229-0.54
		C36.405,32.972,36.632,33.206,36.546,33.636z"/>
	<path fill="#333333" stroke="#1A171B" stroke-width="0.5" stroke-miterlimit="10" d="M22.361,39.619
		c-0.102-0.04-0.19-0.04-0.271-0.024c-1.012-0.064-2.071,0.407-2.306,1.482c-0.229,1.049,0.757,2.063,1.754,2.198
		c1.012,0.136,1.932-0.597,2.123-1.581C23.861,40.664,23.272,39.98,22.361,39.619z M22.606,41.486
		c-0.086,0.436-0.468,0.78-0.924,0.719c-0.433-0.06-0.973-0.523-0.819-0.997c0.167-0.512,0.763-0.572,1.229-0.539
		C22.465,40.821,22.691,41.058,22.606,41.486z"/>
	<path fill="#333333" stroke="#1A171B" stroke-width="0.5" stroke-miterlimit="10" d="M42.411,12.655
		c0.192,0.195,0.574,0.222,0.764,0c0.641-0.756,1.293-1.509,1.872-2.313c0.147-0.204,0.062-0.483-0.085-0.654
		c-1.741-2.047-6.928-9.466-9.197-3.886c-0.771,1.895-1.104,4.097-1.619,6.071c-0.233,0.888-0.465,1.776-0.693,2.666
		c-6.4-0.014-12.799-0.173-19.199-0.18c-0.092,0-0.17,0.021-0.238,0.053c-0.186,0.063-0.326,0.224-0.302,0.486
		c0.746,8.058,1.674,16.102,2.96,24.092c0.336,2.091,0.696,4.178,1.089,6.258c0.206,1.091,0.185,2.959,0.969,3.818
		c0.598,0.654,1.641,0.527,2.435,0.552c2.139,0.065,4.271,0.128,6.412,0.12c1.886-0.007,3.771-0.041,5.656-0.057
		c1.063-0.01,2.813,0.234,3.804-0.28c2.104-1.093,1.851-5.235,2.168-7.241c1.429-9.021,2.858-18.04,4.288-27.06
		c0.053-0.331-0.137-0.696-0.52-0.684c-1.784,0.059-3.568,0.087-5.352,0.105c0.45-1.741,0.938-3.471,1.484-5.184
		C40.214,10.438,41.315,11.544,42.411,12.655z M32.561,22.804c0.531-2.406,1.119-4.799,1.729-7.186c0.646,0,1.293,0,1.939-0.003
		c-0.604,2.421-1.156,4.856-1.738,7.28C33.849,22.889,33.206,22.857,32.561,22.804z M31.479,22.693
		c-1.416-0.164-2.838-0.409-4.261-0.667c-4.067-0.739-7.693-0.847-11.674,0.283c-0.249-2.289-0.484-4.578-0.698-6.87
		c6.111,0.016,12.221,0.16,18.331,0.177C32.578,17.968,32,20.324,31.479,22.693z M38.989,36.668
		c-0.275,1.735-0.551,3.47-0.824,5.204c-0.256,1.608-0.244,3.688-0.826,5.204c-0.721,1.884-2.417,1.511-4.105,1.524
		c-1.726,0.016-3.452,0.045-5.178,0.055c-1.625,0.01-3.251,0.004-4.875-0.041c-0.758-0.021-1.788,0.127-2.523-0.102
		c-1.5-0.465-1.349-0.951-1.581-2.139c-0.658-3.358-1.231-6.733-1.744-10.117c-0.649-4.275-1.189-8.566-1.668-12.864
		c5.339-1.552,9.879-0.342,15.199,0.388c3.483,0.478,7.046,0.289,10.327-0.986C40.455,27.419,39.722,32.044,38.989,36.668z
		 M42.343,15.511c-0.32,2.019-0.641,4.039-0.961,6.058c-1.902,0.849-3.831,1.219-5.776,1.305c0.579-2.422,1.134-4.853,1.739-7.27
		C39.011,15.588,40.677,15.56,42.343,15.511z M36.505,14.532c-0.646,0.004-1.292,0.006-1.938,0.006
		c0.176-0.681,0.353-1.363,0.53-2.044c0.509-1.945,0.726-4.75,1.763-6.506c1.355-2.296,2.969-0.337,4.149,0.897
		c0.607,0.636,2.878,2.558,2.814,3.324c-0.032,0.392-0.888,0.918-1.091,1.296c-0.025-0.046-0.043-0.084-0.078-0.142
		c-0.777-1.255-2.357-2.379-3.412-3.419c-0.301-0.296-0.775-0.143-0.902,0.238C37.644,10.275,37.052,12.397,36.505,14.532z"/>
	<path fill="#333333" stroke="#1A171B" stroke-width="0.5" stroke-miterlimit="10" d="M16.093,18.937
		c0.15,0.655,0.26,1.319,0.371,1.981c0.114,0.684,1.154,0.394,1.041-0.287c-0.125-0.746-0.249-1.493-0.429-2.227
		c-0.026-0.109-0.155-0.382-0.128-0.487c-0.022-0.023-0.043-0.046-0.065-0.069c0.101-0.007,0.202-0.015,0.302-0.023
		c0.42-0.021,0.837,0.009,1.253,0.061c0.688,0.084,0.682-0.996,0-1.08c-0.755-0.093-2.384-0.338-2.589,0.739
		C15.763,17.994,15.994,18.506,16.093,18.937z"/>
	<path fill="#333333" stroke="#1A171B" stroke-width="0.5" stroke-miterlimit="10" d="M20.112,18.026c0.694,0,0.696-1.079,0-1.079
		C19.417,16.947,19.417,18.026,20.112,18.026z"/>
</g>
</svg>
