<?xml version="1.0" encoding="utf-8"?>
<!-- Generator: Adobe Illustrator 16.0.0, SVG Export Plug-In . SVG Version: 6.00 Build 0)  -->
<!DOCTYPE svg PUBLIC "-//W3C//DTD SVG 1.1//EN" "http://www.w3.org/Graphics/SVG/1.1/DTD/svg11.dtd">
<svg version="1.1" id="Calque_1" xmlns="http://www.w3.org/2000/svg" xmlns:xlink="http://www.w3.org/1999/xlink" x="0px" y="0px"
	 width="58.833px" height="53.5px" viewBox="0 0 58.833 53.5" enable-background="new 0 0 58.833 53.5" xml:space="preserve">
<g>
	<path fill="#333333" stroke="#1A171B" stroke-width="0.75" stroke-miterlimit="10" d="M48.095,28.049
		c0.54-0.478,0.929-1.116,1.054-1.99c0.805-5.604-4.056-11.154-8.587-13.655c-5.55-3.063-11.389-4.181-17.639-2.718
		c-3.813,0.894-6.512,3.079-8.952,6.063c-1.973,2.413-4.217,5.609-4.25,8.876c-0.01,1.015,0.219,3.044,0.938,3.756
		c0.063,0.063,0.147,0.11,0.222,0.165c-1.325,0.856-3.018,2.505-2.19,3.979c0.378,0.675,1.265,0.813,1.944,0.771
		c0.283-0.018,0.586-0.147,0.884-0.267c-0.101,1.195-0.067,2.747,0.648,3.757c-1.015,0.172-2.007,0.559-2.367,1.508
		c-0.472,1.24-0.104,4.111,1.028,4.985c0.579,0.446,1.35,0.392,2.036,0.478c1.64,0.204,3.242,0.428,4.898,0.472
		c3.775,0.103,7.552,0.208,11.328,0.221c3.807,0.012,7.614-0.064,11.417-0.231c2.203-0.097,5.372,0.025,7.316-1.309
		c1.36-0.933,1.555-2.992,1.13-4.485c-0.418-1.466-1.438-1.948-2.663-2.126c1.035-0.91,1.442-2.19,0.976-3.62
		c0.153,0.084,0.313,0.158,0.515,0.166c0.758,0.028,1.688-0.575,2.141-1.144C51.174,30.13,49.512,28.82,48.095,28.049z
		 M11.352,22.044c1.405-3.995,4.802-8.347,8.628-10.257c3.453-1.725,8.256-2.175,12.046-1.565
		c5.384,0.868,11.315,4.089,14.194,8.821c1.023,1.685,1.783,3.764,1.896,5.746c0.186,3.255-3.181,3.583-5.719,3.755
		c-4.171,0.283-8.33,0.247-12.505,0.185c-3.861-0.034-7.725-0.036-11.585-0.105c-1.896-0.034-5.842,0.349-7.089-1.36
		C10.245,25.929,10.883,23.375,11.352,22.044z M47.971,38.695c0.355,0.963,0.15,2.654-0.661,3.337
		c-1.103,0.927-3.469,0.984-4.82,1.075c-4.452,0.3-8.938,0.341-13.4,0.326c-4.117-0.015-8.269-0.025-12.381-0.259
		c-1.748-0.098-5.116,0.069-5.789-1.813c-0.788-2.204,0.421-3.511,2.52-3.682c0.785,0.226,1.692,0.152,2.499,0.181
		c5.074,0.18,10.183,0.529,15.255,0.198c2.612-0.17,5.201-0.409,7.82-0.423c1.967-0.011,3.875,0.282,5.734-0.433
		C46.036,37.226,47.396,37.135,47.971,38.695z M38.554,36.625c-3.204,0.036-6.382,0.431-9.582,0.517
		c-3.002,0.081-6.005-0.045-9.004-0.153c-1.475-0.054-2.95-0.105-4.425-0.157c-2.549-0.091-3.2-1.713-2.994-3.977
		c0.913,0.148,0.842,0.865,1.382,1.515c1.554,1.869,3.953,0.487,5.408-0.656c1.018-0.801,1.598-1.292,2.904-0.653
		c0.481,0.234,0.837,0.648,1.353,0.84c1.148,0.426,1.873-0.087,2.958-0.391c2.719-0.764,2.637-0.272,4.662,0.718
		c0.512,0.251,1.044,0.456,1.604,0.567c1.386,0.274,2.655,0.028,3.869-0.646c1.534-0.85,1.892-1.697,4.114-0.973
		c0.407,0.133,0.751,0.449,1.167,0.576c0.938,0.288,1.63,0.181,2.397-0.415c0.621-0.482,0.946-0.933,1.648-0.987
		C48.593,37.013,40.926,36.597,38.554,36.625z M47.125,31.504c-0.628-0.141-0.995-0.647-1.711-0.479
		c-0.519,0.123-0.78,0.681-1.179,0.974c-0.766,0.563-1.292,0.879-2.391,0.579c-0.411-0.112-0.786-0.453-1.2-0.589
		c-1.854-0.61-2.902,0.417-4.469,1.281c-1.987,1.098-3.78,0.375-5.595-0.624c-0.799-0.44-1.52-0.797-2.453-0.725
		c-1.188,0.093-2.078,0.708-3.307,0.773c-1.617,0.088-1.636-0.618-2.983-0.989c-1.335-0.368-2.218,0.54-3.217,1.287
		c-1.097,0.82-1.146,0.924-2.676,0.64c-1.975-0.365-1.057-0.254-1.937-1.283c-0.244-0.286-0.574-0.55-0.939-0.635
		c-0.703-0.164-1.273,0.42-1.94,0.44c-2.95,0.088-0.344-2.431,0.866-3.078c1.209,0.359,2.746,0.396,3.718,0.469
		c4.696,0.349,9.472,0.159,14.181,0.201c4.31,0.064,8.614,0.106,12.917-0.216c1.361-0.101,3.017-0.241,4.302-0.846
		c0.482,0.233,1.877,0.916,2.032,1.442C49.504,31.346,47.919,31.682,47.125,31.504z"/>
	<path fill="#333333" d="M16.46,27.277c0.652-0.027,0.655-1.044,0-1.017c-1.137,0.048-3.248,0.232-3.053-1.433
		c0.134-1.136,0.948-2.282,1.707-3.083c0.45-0.475-0.268-1.195-0.719-0.719c-1.028,1.083-2.452,3.174-2.1,4.784
		C12.645,27.4,15.275,27.327,16.46,27.277z"/>
	<path fill="#333333" d="M18.832,27.288c0.655,0,0.656-1.017,0-1.017C18.178,26.271,18.176,27.288,18.832,27.288z"/>
	<path fill="#333333" d="M21.039,14.19c0.302,0.004,0.475-0.237,0.508-0.509c0.023-0.186,0.046-0.371,0.068-0.557
		c0.033-0.274-0.258-0.506-0.509-0.509c-0.302-0.003-0.475,0.237-0.509,0.509c-0.022,0.186-0.045,0.371-0.067,0.557
		C20.497,13.957,20.788,14.188,21.039,14.19z"/>
	<path fill="#333333" d="M26.581,13.164c0.154-0.126,0.327-0.221,0.508-0.305c0.593-0.275,0.077-1.152-0.513-0.878
		c-0.265,0.123-0.489,0.279-0.715,0.464C25.355,12.862,26.079,13.577,26.581,13.164z"/>
	<path fill="#333333" d="M32.037,12.979c0.589,0.279,1.104-0.598,0.514-0.878c-0.279-0.132-0.539-0.284-0.792-0.462
		c-0.537-0.377-1.045,0.504-0.514,0.878C31.498,12.695,31.759,12.847,32.037,12.979z"/>
	<path fill="#333333" d="M35.689,14.245c0.127-0.125,0.247-0.182,0.417-0.222c0.638-0.146,0.368-1.127-0.271-0.98
		c-0.334,0.077-0.621,0.243-0.865,0.482C34.503,13.985,35.223,14.705,35.689,14.245z"/>
	<path fill="#333333" d="M29.283,17.101c0.411,0.508,1.127-0.216,0.719-0.72c-0.093-0.114-0.189-0.217-0.299-0.315
		c-0.484-0.438-1.205,0.278-0.719,0.719C29.092,16.883,29.19,16.987,29.283,17.101z"/>
	<path fill="#333333" d="M23.303,16.953c0.139-0.152,0.276-0.259,0.458-0.354c0.58-0.303,0.067-1.181-0.513-0.878
		c-0.253,0.132-0.473,0.303-0.664,0.514C22.145,16.717,22.863,17.438,23.303,16.953z"/>
	<path fill="#333333" d="M33.951,17.221c0.581,0.298,1.097-0.579,0.514-0.878c-0.213-0.109-0.369-0.235-0.498-0.438
		c-0.351-0.551-1.231-0.041-0.879,0.514C33.307,16.761,33.588,17.036,33.951,17.221z"/>
	<path fill="#333333" d="M18.217,16.743c0.023-0.122,0.046-0.221,0.154-0.296c0.533-0.372,0.025-1.254-0.514-0.879
		c-0.321,0.224-0.549,0.513-0.621,0.905C17.119,17.114,18.098,17.387,18.217,16.743z"/>
	<path fill="#333333" d="M38.471,16.137c0.499,0.416,1.223-0.299,0.719-0.72c-0.151-0.126-0.302-0.251-0.454-0.377
		c-0.499-0.417-1.222,0.3-0.719,0.719C38.168,15.884,38.319,16.011,38.471,16.137z"/>
</g>
</svg>
