<?xml version="1.0" encoding="utf-8"?>
<!-- Generator: Adobe Illustrator 16.0.0, SVG Export Plug-In . SVG Version: 6.00 Build 0)  -->
<!DOCTYPE svg PUBLIC "-//W3C//DTD SVG 1.1//EN" "http://www.w3.org/Graphics/SVG/1.1/DTD/svg11.dtd">
<svg version="1.1" id="Calque_1" xmlns="http://www.w3.org/2000/svg" xmlns:xlink="http://www.w3.org/1999/xlink" x="0px" y="0px"
	 width="58.833px" height="53.5px" viewBox="0 0 58.833 53.5" enable-background="new 0 0 58.833 53.5" xml:space="preserve">
<g>
	<path fill-rule="evenodd" clip-rule="evenodd" fill="#333333" stroke="#1A171B" stroke-width="0.75" stroke-miterlimit="10" d="
		M40.113,20.896c0.039,0.189,0.121,0.58,0.231,1.111c0.887,0,1.739-0.039,2.586,0.02c0.321,0.022,0.827,0.2,0.906,0.426
		c0.337,0.97,1.117,1.235,1.963,1.386c1.768,0.315,2.166,0.74,2.191,2.49c0.025,1.72,0.09,1.785,1.76,1.789
		c2.21,0.005,2.248,0.01,2.012,2.232c-0.529,4.989-3.268,8.454-7.611,10.733c-4.334,2.273-9.042,2.941-13.86,3.022
		c-4.693,0.078-9.324-0.341-13.727-2.12c-5.101-2.061-8.646-5.482-9.517-11.167c-0.352-2.295,0.553-3.813,2.684-4.832
		c0.531-0.254,1.045-0.861,1.254-1.422c1.249-3.352,2.439-6.727,3.573-10.119c0.351-1.048,0.825-1.434,1.868-0.932
		c0.299,0.144,0.642,0.193,0.96,0.299c0.602,0.198,0.807,0.553,0.58,1.199c-0.407,1.157-0.749,2.337-1.156,3.631
		c0.768-0.101,1.441-0.188,2.203-0.288c0-0.606-0.043-1.19,0.015-1.764c0.041-0.407,0.219-0.803,0.335-1.202
		c0.387,0.227,0.879,0.371,1.139,0.699c0.575,0.727,1.091,1.516,1.523,2.336c0.385,0.729,0.88,0.898,1.537,0.504
		c0.72-0.432,1.39-0.946,1.797-1.229c-0.56-1.372-1.02-2.537-1.516-3.687c-0.097-0.224-0.337-0.384-0.508-0.576
		c-0.769-0.864-0.912-2.11-0.259-2.988c0.169-0.228,0.592-0.268,0.898-0.394c0.066,0.293,0.241,0.612,0.177,0.873
		c-0.152,0.618-0.457,1.213,0.313,1.761c1.361-1.279,2.719-0.584,4.078,0.087c2.202,1.088,4.351,2.311,6.62,3.229
		c3.381,1.369,6.843,1.235,10.293,0.076c0.488-0.164,1.078-0.026,1.621-0.028c-0.298,0.456-0.491,1.081-0.91,1.34
		C44.249,18.578,42.267,19.663,40.113,20.896z M8.246,29.446c-0.036,1.882,0.424,3.555,1.237,5.128
		c2.002,3.875,5.508,5.771,9.468,6.93c5.191,1.518,10.506,1.7,15.852,1.034c3.657-0.456,7.184-1.358,10.311-3.417
		c3.442-2.266,5.254-5.463,5.466-9.675C36.464,29.446,22.422,29.446,8.246,29.446z M23.309,20.532
		c0.56,2.159,1.213,4.333,1.656,6.55c0.177,0.887,0.496,1.05,1.292,1.047c6.531-0.026,13.063-0.016,19.594-0.02
		c0.288,0,0.576-0.037,0.93-0.063c0-0.277,0.003-0.493-0.001-0.709c-0.034-1.859-0.036-1.852-1.827-2.377
		c-0.28-0.082-0.533-0.254-0.795-0.392c-1.254-0.661-2.313-1.757-3.979-1.456c-0.31,0.057-1.037-0.739-1.125-1.223
		c-0.165-0.912-0.552-1.064-1.364-0.966c-3.695,0.445-7.113-0.429-10.275-2.327c-0.506-0.305-0.803-0.287-1.267,0.058
		C25.23,19.334,24.246,19.92,23.309,20.532z M42.343,18.201c-4.824,0.503-9.004-1.227-13.024-3.57
		c-0.802-0.468-1.632-0.928-2.507-1.217c-0.396-0.131-1.156,0.013-1.35,0.301c-0.234,0.35-0.216,1.082,0.005,1.471
		c0.338,0.594,0.895,1.096,1.443,1.531c2.641,2.095,5.704,3.034,9.04,3.083C38.202,19.832,40.347,19.341,42.343,18.201z
		 M19.834,28.049c-0.519-1.268,0.515-2.816-1.234-3.521c-0.058-0.022,0.035-0.622,0.184-0.88c0.088-0.153,0.426-0.161,0.66-0.236
		c-0.06-1.008-0.116-1.936-0.172-2.863c-0.004-0.073,0.022-0.171-0.015-0.219c-0.175-0.229-0.361-0.626-0.554-0.632
		c-1.051-0.034-2.622,0.577-2.877,1.829c-0.215,1.05-0.639,2.057-0.968,3.083c-0.358,1.119-0.713,2.24-1.095,3.439
		C15.817,28.049,17.698,28.049,19.834,28.049z M23.835,27.922c-0.467-3.346-1.443-6.493-3.325-9.326
		c0.031,2.403,0.178,4.773,0.315,7.146c0.15,2.586,0.146,2.586,2.76,2.327C23.619,28.065,23.649,28.032,23.835,27.922z
		 M11.128,28.041c0.697,0.083,1.23,0.271,1.499-0.578c1.257-3.969,2.563-7.922,3.821-11.891c0.069-0.218-0.141-0.524-0.222-0.79
		c-0.206,0.192-0.508,0.348-0.601,0.584c-0.475,1.21-0.9,2.44-1.333,3.667C13.245,22.006,12.203,24.98,11.128,28.041z"/>
	<path fill-rule="evenodd" clip-rule="evenodd" d="M26.801,40.01c-4.451-0.254-8.58-1.48-12.165-4.204
		c-0.75-0.569-1.355-1.367-1.905-2.146c-0.171-0.242,0.061-0.769,0.108-1.164c0.322,0.208,0.671,0.383,0.961,0.629
		c1.124,0.952,2.124,2.098,3.362,2.859c3.178,1.957,6.721,2.773,10.439,2.847c0.335,0.007,0.699-0.058,0.994,0.057
		c0.213,0.082,0.426,0.39,0.462,0.625c0.021,0.138-0.29,0.455-0.474,0.474C27.996,40.05,27.396,40.01,26.801,40.01z"/>
	<path fill-rule="evenodd" clip-rule="evenodd" d="M26.658,26.332c-0.491-0.483-0.869-0.856-1.247-1.229
		c0.286-0.166,0.662-0.537,0.841-0.458c0.475,0.208,0.865,0.609,1.289,0.934C27.3,25.785,27.06,25.989,26.658,26.332z"/>
	<path fill-rule="evenodd" clip-rule="evenodd" d="M28.28,22.167c0.453,0.385,0.75,0.637,1.047,0.889
		c-0.333,0.205-0.663,0.566-0.999,0.571c-0.333,0.005-0.671-0.348-1.007-0.544C27.594,22.821,27.869,22.56,28.28,22.167z"/>
	<path fill-rule="evenodd" clip-rule="evenodd" d="M25.986,20.094c0.287,0.395,0.638,0.787,0.596,0.834
		c-0.309,0.354-0.673,0.678-1.078,0.908c-0.078,0.044-0.412-0.361-0.627-0.559C25.205,20.928,25.532,20.578,25.986,20.094z"/>
	<path fill-rule="evenodd" clip-rule="evenodd" d="M42.309,25.853c-0.622,0.348-0.925,0.644-1.231,0.648
		c-0.256,0.004-0.519-0.333-0.777-0.519c0.27-0.24,0.508-0.602,0.819-0.681C41.353,25.241,41.679,25.543,42.309,25.853z"/>
	<path fill-rule="evenodd" clip-rule="evenodd" d="M38.267,23.873c-0.358,0.36-0.586,0.59-0.814,0.819
		c-0.229-0.272-0.593-0.523-0.64-0.823c-0.032-0.209,0.353-0.656,0.585-0.682C37.618,23.162,37.884,23.55,38.267,23.873z"/>
	<path fill-rule="evenodd" clip-rule="evenodd" d="M34.11,24.49c0.252,0.463,0.568,0.808,0.493,0.958
		c-0.135,0.27-0.485,0.467-0.788,0.589c-0.068,0.027-0.482-0.434-0.438-0.581C33.465,25.161,33.759,24.928,34.11,24.49z"/>
	<path fill-rule="evenodd" clip-rule="evenodd" d="M16.819,26.104c-0.401,0.355-0.648,0.653-0.965,0.8
		c-0.082,0.038-0.593-0.491-0.545-0.6c0.154-0.35,0.478-0.624,0.736-0.927C16.255,25.574,16.465,25.771,16.819,26.104z"/>
</g>
</svg>
