<?xml version="1.0" encoding="utf-8"?>
<!-- Generator: Adobe Illustrator 16.0.0, SVG Export Plug-In . SVG Version: 6.00 Build 0)  -->
<!DOCTYPE svg PUBLIC "-//W3C//DTD SVG 1.1//EN" "http://www.w3.org/Graphics/SVG/1.1/DTD/svg11.dtd">
<svg version="1.1" id="Calque_1" xmlns="http://www.w3.org/2000/svg" xmlns:xlink="http://www.w3.org/1999/xlink" x="0px" y="0px"
	 width="58.833px" height="53.5px" viewBox="0 0 58.833 53.5" enable-background="new 0 0 58.833 53.5" xml:space="preserve">
<g>
	<path fill="#333333" stroke="#1A171B" stroke-width="0.75" stroke-miterlimit="10" d="M79.416,413.809
		c0.54-0.478,0.929-1.116,1.054-1.989c0.805-5.604-4.056-11.154-8.587-13.655c-5.55-3.063-11.389-4.181-17.639-2.718
		c-3.813,0.894-6.512,3.079-8.952,6.063c-1.973,2.413-4.217,5.609-4.25,8.876c-0.01,1.015,0.219,3.044,0.938,3.756
		c0.063,0.063,0.147,0.11,0.222,0.165c-1.325,0.856-3.018,2.505-2.19,3.979c0.378,0.675,1.265,0.813,1.944,0.771
		c0.283-0.018,0.586-0.147,0.884-0.267c-0.101,1.195-0.067,2.747,0.648,3.757c-1.015,0.172-2.007,0.559-2.367,1.508
		c-0.472,1.24-0.104,4.111,1.028,4.985c0.579,0.446,1.35,0.392,2.036,0.478c1.64,0.204,3.242,0.428,4.898,0.472
		c3.775,0.103,7.552,0.208,11.328,0.221c3.807,0.012,7.613-0.064,11.416-0.231c2.203-0.097,5.372,0.025,7.316-1.309
		c1.36-0.933,1.555-2.992,1.13-4.485c-0.418-1.466-1.438-1.948-2.663-2.126c1.035-0.91,1.442-2.19,0.976-3.62
		c0.153,0.084,0.313,0.158,0.515,0.166c0.758,0.028,1.688-0.575,2.141-1.144C82.495,415.89,80.833,414.58,79.416,413.809z
		 M42.674,407.805c1.405-3.995,4.802-8.347,8.628-10.257c3.453-1.725,8.256-2.175,12.046-1.565
		c5.384,0.868,11.315,4.089,14.194,8.821c1.023,1.685,1.783,3.764,1.896,5.746c0.186,3.255-3.181,3.582-5.719,3.755
		c-4.171,0.283-8.33,0.247-12.505,0.185c-3.861-0.034-7.725-0.036-11.585-0.105c-1.896-0.034-5.842,0.349-7.089-1.36
		C41.566,411.689,42.205,409.135,42.674,407.805z M79.292,424.455c0.355,0.963,0.15,2.654-0.661,3.337
		c-1.103,0.927-3.469,0.984-4.82,1.075c-4.452,0.3-8.938,0.341-13.399,0.326c-4.117-0.015-8.269-0.025-12.381-0.259
		c-1.748-0.098-5.116,0.069-5.789-1.813c-0.788-2.204,0.421-3.511,2.52-3.682c0.785,0.226,1.692,0.152,2.499,0.181
		c5.074,0.18,10.183,0.529,15.255,0.198c2.611-0.17,5.2-0.409,7.819-0.423c1.967-0.011,3.875,0.282,5.734-0.433
		C77.357,422.985,78.717,422.895,79.292,424.455z M69.875,422.385c-3.204,0.036-6.382,0.431-9.581,0.517
		c-3.002,0.081-6.005-0.045-9.004-0.153c-1.475-0.054-2.95-0.105-4.425-0.157c-2.549-0.091-3.2-1.713-2.994-3.977
		c0.913,0.148,0.842,0.865,1.382,1.515c1.554,1.869,3.953,0.487,5.408-0.656c1.018-0.801,1.598-1.292,2.904-0.653
		c0.481,0.234,0.837,0.648,1.353,0.84c1.148,0.426,1.873-0.087,2.958-0.391c2.719-0.764,2.637-0.272,4.662,0.718
		c0.512,0.251,1.044,0.456,1.604,0.567c1.386,0.274,2.655,0.028,3.869-0.646c1.534-0.85,1.892-1.697,4.114-0.973
		c0.407,0.133,0.751,0.449,1.167,0.576c0.938,0.288,1.63,0.181,2.397-0.415c0.621-0.482,0.946-0.933,1.648-0.987
		C79.914,422.772,72.247,422.356,69.875,422.385z M78.446,417.264c-0.628-0.141-0.995-0.647-1.711-0.479
		c-0.519,0.123-0.78,0.681-1.179,0.974c-0.766,0.563-1.292,0.879-2.391,0.579c-0.411-0.112-0.786-0.453-1.2-0.589
		c-1.854-0.61-2.902,0.417-4.469,1.281c-1.987,1.098-3.78,0.375-5.595-0.624c-0.799-0.44-1.52-0.797-2.453-0.725
		c-1.188,0.093-2.078,0.708-3.307,0.773c-1.617,0.088-1.636-0.618-2.983-0.989c-1.335-0.368-2.218,0.54-3.217,1.287
		c-1.097,0.82-1.146,0.924-2.676,0.64c-1.975-0.365-1.057-0.254-1.937-1.283c-0.244-0.286-0.574-0.55-0.939-0.635
		c-0.703-0.164-1.273,0.42-1.94,0.44c-2.95,0.088-0.344-2.431,0.866-3.078c1.209,0.359,2.746,0.396,3.718,0.469
		c4.696,0.349,9.472,0.159,14.181,0.201c4.31,0.064,8.613,0.106,12.917-0.216c1.361-0.101,3.017-0.241,4.302-0.846
		c0.482,0.233,1.877,0.916,2.032,1.442C80.825,417.105,79.24,417.441,78.446,417.264z"/>
	<path fill="#333333" d="M47.782,413.037c0.652-0.027,0.655-1.044,0-1.017c-1.137,0.048-3.248,0.232-3.053-1.433
		c0.134-1.136,0.948-2.282,1.707-3.083c0.45-0.475-0.268-1.195-0.719-0.719c-1.028,1.083-2.452,3.174-2.1,4.784
		C43.967,413.16,46.597,413.087,47.782,413.037z"/>
	<path fill="#333333" d="M50.153,413.048c0.655,0,0.656-1.017,0-1.017C49.5,412.031,49.498,413.048,50.153,413.048z"/>
	<path fill="#333333" d="M52.36,399.95c0.302,0.004,0.475-0.237,0.508-0.509c0.023-0.186,0.046-0.371,0.068-0.557
		c0.033-0.274-0.258-0.506-0.509-0.509c-0.302-0.003-0.475,0.237-0.509,0.509c-0.022,0.186-0.045,0.371-0.067,0.557
		C51.818,399.717,52.109,399.948,52.36,399.95z"/>
	<path fill="#333333" d="M57.902,398.924c0.154-0.126,0.327-0.221,0.508-0.305c0.593-0.275,0.077-1.152-0.513-0.878
		c-0.265,0.123-0.489,0.279-0.715,0.464C56.677,398.622,57.4,399.337,57.902,398.924z"/>
	<path fill="#333333" d="M63.358,398.739c0.589,0.279,1.104-0.598,0.514-0.878c-0.279-0.132-0.539-0.284-0.792-0.462
		c-0.536-0.377-1.045,0.504-0.514,0.878C62.819,398.455,63.08,398.607,63.358,398.739z"/>
	<path fill="#333333" d="M67.011,400.005c0.127-0.125,0.247-0.182,0.417-0.222c0.638-0.146,0.368-1.127-0.271-0.98
		c-0.334,0.077-0.621,0.243-0.865,0.482C65.824,399.745,66.544,400.465,67.011,400.005z"/>
	<path fill="#333333" d="M60.604,402.861c0.411,0.508,1.127-0.216,0.719-0.72c-0.093-0.114-0.189-0.217-0.299-0.315
		c-0.484-0.438-1.205,0.278-0.719,0.719C60.414,402.644,60.512,402.747,60.604,402.861z"/>
	<path fill="#333333" d="M54.625,402.713c0.139-0.152,0.276-0.259,0.458-0.354c0.58-0.303,0.067-1.181-0.513-0.878
		c-0.253,0.132-0.473,0.303-0.664,0.514C53.467,402.478,54.185,403.198,54.625,402.713z"/>
	<path fill="#333333" d="M65.272,402.981c0.581,0.298,1.097-0.579,0.514-0.878c-0.213-0.109-0.369-0.235-0.498-0.438
		c-0.351-0.551-1.231-0.041-0.879,0.514C64.628,402.521,64.909,402.796,65.272,402.981z"/>
	<path fill="#333333" d="M49.539,402.503c0.023-0.122,0.046-0.221,0.154-0.296c0.533-0.372,0.025-1.254-0.514-0.879
		c-0.321,0.224-0.549,0.513-0.621,0.905C48.44,402.874,49.42,403.147,49.539,402.503z"/>
	<path fill="#333333" d="M69.792,401.897c0.499,0.416,1.223-0.299,0.719-0.72c-0.151-0.126-0.302-0.251-0.454-0.377
		c-0.499-0.417-1.222,0.3-0.719,0.719C69.489,401.645,69.641,401.771,69.792,401.897z"/>
</g>
<g>
	<path fill="none" stroke="#1A171B" stroke-width="0.8606" stroke-miterlimit="10" d="M17.924,36.554l1.685,9.207
		c0,0,0.431,0.753,1.829,1.076c1.398,0.322,7.555,1.275,14.749,0.1c1.242-0.279,1.781-0.709,1.996-1.749s1.541-8.921,1.541-8.921
		s-5.521,1.283-11.223,1.247C22.801,37.479,17.924,36.554,17.924,36.554z"/>
	<g>
		<path d="M26.465,29.275c-0.806,0-1.637-0.05-2.473-0.144c-2.358-0.265-4.009-0.834-5.523-1.905
			c-0.092-0.066-0.237-0.141-0.393-0.217c-0.458-0.228-0.978-0.487-0.939-0.937c0.061-0.738,1.157-1.551,1.283-1.642l0.047-0.033
			l0.057-0.008c0.343-0.045,0.894-0.158,1.047-0.271c0.074-0.054,0.105-0.108,0.15-0.189c0.078-0.139,0.175-0.311,0.48-0.454
			c0.293-0.138,0.76-0.205,1.423-0.205c1.183,0,2.722,0.224,3.437,0.381c0.585,0.128,1.171,0.342,1.793,0.562
			c1.009,0.363,2.05,0.735,3.073,0.735c0.4,0,0.766-0.055,1.118-0.169c0.208-0.066,0.408-0.133,0.605-0.198
			c0.955-0.321,1.857-0.622,3.064-0.671c1.182-0.047,2.174,0.042,3.539,0.309c0.904,0.177,2.131,1.18,2.08,1.703
			c-0.016,0.16-0.139,0.332-0.434,0.332c-0.094-0.004-0.162-0.006-0.229-0.006c-0.666,0-1.381,0.104-2.25,0.321
			c-1.104,0.276-2.156,0.688-3.172,1.085c-0.453,0.177-0.906,0.352-1.363,0.518C30.874,28.903,28.714,29.275,26.465,29.275z
			 M18.641,24.83c-0.408,0.308-1.019,0.893-1.051,1.281c-0.012,0.144,0.463,0.381,0.69,0.494c0.17,0.084,0.331,0.165,0.453,0.251
			c1.447,1.024,3.035,1.571,5.311,1.825c3.095,0.348,6.02,0.034,8.687-0.935c0.455-0.164,0.902-0.342,1.352-0.517
			c1.031-0.399,2.096-0.817,3.229-1.102c0.982-0.245,1.771-0.354,2.537-0.331c-0.172-0.307-0.965-0.992-1.682-1.136
			c-1.33-0.26-2.291-0.344-3.432-0.299c-1.143,0.045-1.975,0.324-2.939,0.646c-0.199,0.065-0.4,0.135-0.611,0.203
			c-0.398,0.126-0.81,0.188-1.257,0.188c-1.101,0-2.182-0.386-3.227-0.758c-0.608-0.219-1.18-0.425-1.738-0.548
			c-0.674-0.149-2.201-0.371-3.337-0.371c-0.731,0-1.073,0.087-1.23,0.162c-0.173,0.08-0.213,0.155-0.276,0.265
			c-0.056,0.097-0.124,0.219-0.275,0.333C19.568,24.686,18.884,24.798,18.641,24.83z"/>
	</g>
	<g>
		<path d="M28.802,25.747c-1.369,0-2.582-0.202-3.707-0.614c-0.347-0.125-0.661-0.286-0.964-0.443
			c-0.299-0.156-0.581-0.299-0.893-0.416c-0.486-0.181-0.798-0.205-1.229-0.239c-0.168-0.014-0.351-0.027-0.562-0.056
			c-0.582-0.068-1.492-0.928-1.593-1.027l-0.099-0.095l0.038-0.129c0.042-0.145,0.442-1.421,1.278-1.523
			c1.223-0.152,3.102,0.422,4.34,0.841c0.818,0.274,1.463,0.493,2.349,0.553c1.238,0.086,2.051-0.248,2.918-0.604
			c0.594-0.247,1.208-0.5,2.005-0.649c2.582-0.491,4.393-0.219,5.777,0.832c0.506,0.384,0.746,1.022,0.627,1.669
			c-0.113,0.626-0.535,1.104-1.129,1.281c-0.541,0.163-1.049,0.237-1.596,0.237c-0.432,0-0.836-0.049-1.227-0.093
			c-0.74-0.087-1.563-0.143-2.367,0.021C31.235,25.603,29.973,25.747,28.802,25.747z M20.273,22.725
			c0.359,0.326,0.932,0.77,1.228,0.805c0.205,0.026,0.383,0.039,0.546,0.053c0.45,0.037,0.805,0.065,1.35,0.267
			c0.338,0.126,0.645,0.282,0.942,0.439c0.305,0.156,0.593,0.305,0.913,0.422c1.074,0.392,2.235,0.583,3.55,0.583
			c1.14,0,2.375-0.14,3.878-0.444c0.859-0.176,1.738-0.116,2.51-0.028c0.395,0.045,0.768,0.09,1.174,0.09
			c0.502,0,0.967-0.068,1.463-0.218c0.428-0.129,0.732-0.474,0.814-0.93c0.088-0.479-0.088-0.947-0.455-1.225
			c-1.275-0.97-2.975-1.214-5.416-0.751c-0.752,0.144-1.343,0.389-1.917,0.625c-0.915,0.377-1.776,0.733-3.125,0.639
			c-0.944-0.066-1.612-0.291-2.458-0.574c-1.197-0.408-2.997-0.965-4.142-0.822C20.724,21.703,20.403,22.365,20.273,22.725z"/>
	</g>
	<g>
		<path d="M28.625,23.673c-1.875,0-3.492-0.271-4.438-0.747l-0.196-0.099c-0.579-0.302-1.935-1.002-2.787-1.002
			c-0.474,0-0.591,0.213-0.641,0.4l-0.028,0.11l-0.258,0.104l-0.066-0.013c-0.827-0.162-0.875-0.612-0.857-0.8
			c0.063-0.641,1.16-1.332,2.639-1.227c0.564,0.044,1.308,0.092,2.048,0.092c1.004,0,1.873-0.084,2.738-0.266
			c0.867-0.184,1.732-0.536,2.646-0.91c1.347-0.549,2.74-1.119,4.177-1.119c0.713,0,1.373,0.138,2.018,0.419
			c0.83,0.36,1.229,0.835,1.184,1.408c-0.115,1.487-3.301,2.936-4.549,3.26C31.313,23.533,29.99,23.673,28.625,23.673z
			 M21.204,21.371c0.962,0,2.336,0.711,2.996,1.054l0.191,0.097c0.884,0.443,2.427,0.7,4.233,0.7c1.309,0,2.624-0.142,3.516-0.374
			c1.396-0.366,4.125-1.762,4.211-2.856c0.027-0.363-0.279-0.685-0.912-0.961c-0.586-0.255-1.186-0.377-1.836-0.377
			c-1.35,0-2.7,0.549-4.004,1.084c-0.893,0.362-1.816,0.739-2.725,0.933c-0.896,0.188-1.796,0.274-2.833,0.274
			c-0.756,0-1.51-0.047-2.083-0.092c-1.249-0.098-2.122,0.506-2.152,0.82c-0.014,0.149,0.209,0.236,0.371,0.28
			C20.301,21.66,20.583,21.371,21.204,21.371z"/>
	</g>
	<g>
		<path d="M25.443,21.189c-1.794,0-3.119-0.454-3.63-1.247c-0.3-0.461-0.315-1.017-0.045-1.609c0.59-1.299,2.003-2.043,3.875-2.043
			c0.791,0,1.64,0.136,2.457,0.392c1.079,0.334,2.176,0.42,3.337,0.512l0.238,0.02c0.211,0.015,0.479,0.021,0.777,0.028
			c1.229,0.028,2.76,0.063,3.299,0.769c0.186,0.243,0.236,0.539,0.15,0.88l-0.033,0.132l-0.135,0.033
			c-0.645,0.147-1.361,0.112-2.006,0.047c-0.316-0.033-0.617-0.066-0.936-0.066c-0.502,0-0.955,0.082-1.425,0.262
			c-0.527,0.2-1.045,0.448-1.543,0.694c-1.083,0.526-2.201,1.071-3.567,1.171C25.977,21.179,25.705,21.189,25.443,21.189z
			 M25.642,16.742c-0.991,0-2.757,0.232-3.461,1.776c-0.205,0.451-0.202,0.849,0.012,1.178c0.488,0.753,2.041,1.15,4.03,1.012
			c1.278-0.091,2.308-0.592,3.398-1.124c0.51-0.25,1.036-0.506,1.584-0.711c0.521-0.197,1.025-0.289,1.585-0.289
			c0.342,0,0.668,0.032,0.982,0.064c0.586,0.062,1.168,0.099,1.711-0.006c0.014-0.141-0.02-0.255-0.096-0.357
			c-0.406-0.532-1.936-0.565-2.949-0.59c-0.307-0.008-0.584-0.013-0.801-0.033l-0.238-0.018c-1.189-0.093-2.31-0.183-3.437-0.532
			C27.19,16.871,26.387,16.742,25.642,16.742z"/>
	</g>
	<g>
		<path d="M31.65,18.052c-0.67,0-1.371-0.072-1.935-0.128c-0.207-0.021-0.398-0.041-0.568-0.057
			c-0.27-0.022-0.577-0.135-0.934-0.269c-0.632-0.233-1.418-0.529-2.464-0.529c-0.802,0-1.615,0.172-2.486,0.522
			c-0.239,0.096-0.422,0.142-0.563,0.142l0,0c-0.251,0-0.345-0.151-0.374-0.214c-0.168-0.385,0.476-1.203,1.046-1.822l0.043-0.036
			c0.182-0.12,1.797-1.168,2.356-1.303c0.78-0.19,1.456-0.354,1.672-0.71c0.116-0.19,0.125-0.458,0.028-0.844
			c-0.224-0.89-0.532-2.112,1.005-2.924c0.452-0.238,0.877-0.359,1.266-0.359c0.855,0,1.446,0.596,1.547,1.554l0.129,1.264
			l-0.561-1.143c-0.034-0.07-0.066-0.142-0.099-0.217c-0.07-0.163-0.188-0.436-0.278-0.436c-0.012,0-0.033,0.002-0.07,0.019
			c-0.295,0.135-0.442,0.336-0.461,0.631c-0.063,0.965,1.272,2.523,1.861,2.888c0.162,0.1,0.361,0.21,0.576,0.327
			c0.904,0.499,2.031,1.117,2.135,1.939c0.045,0.367-0.113,0.721-0.471,1.056C33.584,17.84,32.799,18.052,31.65,18.052z
			 M25.749,16.618c1.128,0,1.992,0.319,2.623,0.557c0.326,0.12,0.607,0.226,0.814,0.242c0.172,0.014,0.365,0.035,0.574,0.056
			c0.584,0.059,1.243,0.127,1.89,0.127c1.027,0,1.711-0.174,2.09-0.525c0.25-0.234,0.357-0.453,0.33-0.668
			c-0.076-0.595-1.133-1.176-1.904-1.6c-0.221-0.123-0.428-0.236-0.598-0.34c-0.652-0.404-2.148-2.117-2.072-3.305
			c0.027-0.457,0.279-0.807,0.726-1.011c0.026-0.014,0.052-0.023,0.078-0.032c-0.388-0.23-0.964-0.177-1.61,0.163
			c-1.137,0.6-1.045,1.347-0.777,2.413c0.128,0.509,0.103,0.886-0.08,1.188c-0.313,0.517-1.038,0.692-1.954,0.916
			c-0.403,0.098-1.695,0.902-2.19,1.226c-0.439,0.479-0.825,1.009-0.918,1.247c0.07-0.014,0.169-0.04,0.322-0.102
			C24.006,16.803,24.899,16.618,25.749,16.618z"/>
	</g>
	<g>
		<path d="M42.4,29.403c-1.123,0.408-2.143,0.978-3.236,1.436c-0.602,0.251-1.242,0.494-1.945,0.505
			c-0.678,0.008-1.344-0.115-2.002-0.227c-1.332-0.225-2.885-0.814-4.264-0.56c-0.976,0.177-1.743,0.683-2.805,0.685
			c-0.864,0.002-1.588-0.218-2.339-0.514c-0.63-0.247-1.269-0.502-1.906-0.74c-0.823-0.31-1.488-0.457-2.416-0.457
			c-0.902-0.001-1.986,0.181-2.841-0.102c-0.447-0.147-0.867-0.52-1.209-0.792c-0.265-0.21-0.527-0.423-0.778-0.643
			c-0.016-0.015-0.037-0.034-0.057-0.058c-0.054,0.015-0.085,0.023-0.085,0.023s-0.785,4.764,3.725,4.094
			c1.517-0.223,3.006-0.331,4.551-0.102c1.804,0.264,3.383,1.082,5.036,1.688c2.064,0.754,4,1.203,6.275,0.967
			c1.146-0.119,2.316-0.175,3.432-0.443c1.24-0.299,2.281-1.511,2.281-1.511s1.623-2.91,1.648-3.592
			C43.107,29.185,42.721,29.286,42.4,29.403z"/>
	</g>
	<g>
		<path d="M42.051,26.768c-0.057-0.039-0.734-0.527-1.65-1.008c-0.145,0.121-0.33,0.203-0.555,0.229
			c1.07,0.524,1.918,1.133,1.924,1.136c0.568,0.482,1.473,1.428,1.469,1.923c0,0.429-0.982,2.35-1.609,3.475
			c-0.127,0.141-1.07,1.165-2.146,1.424c-0.846,0.202-1.744,0.284-2.611,0.362c-0.266,0.026-0.529,0.048-0.793,0.076
			c-0.395,0.041-0.793,0.061-1.182,0.061c-1.549,0-3.041-0.304-4.99-1.017c-0.449-0.162-0.895-0.346-1.34-0.524
			c-1.181-0.481-2.403-0.978-3.74-1.175c-0.591-0.086-1.186-0.129-1.821-0.129c-0.836,0-1.726,0.073-2.798,0.233
			c-0.277,0.039-0.542,0.061-0.788,0.061l0,0c-0.887,0-1.569-0.272-2.025-0.806c-0.809-0.946-0.722-2.477-0.672-2.947
			c0.586-0.154,2.817-0.729,4.734-0.997c-0.131-0.115-0.234-0.256-0.3-0.416c-2.162,0.321-4.567,0.979-4.701,1.016l-0.141,0.036
			l-0.023,0.144c-0.015,0.09-0.342,2.171,0.754,3.456c0.547,0.644,1.346,0.968,2.373,0.968h0.001c0.268,0,0.556-0.022,0.854-0.068
			c1.841-0.271,3.165-0.298,4.484-0.102c1.284,0.188,2.48,0.674,3.637,1.146c0.45,0.183,0.899,0.364,1.355,0.53
			c2.001,0.733,3.541,1.045,5.146,1.045c0.404,0,0.818-0.021,1.229-0.063c0.262-0.027,0.525-0.052,0.787-0.076
			c0.887-0.08,1.799-0.163,2.676-0.375c1.297-0.312,2.357-1.531,2.4-1.584l0.027-0.038c0.279-0.499,1.676-3.037,1.68-3.715
			C43.697,28.184,42.23,26.92,42.051,26.768z"/>
		<path d="M33.615,27.183c-0.27,0.084-0.523,0.051-0.744-0.055c-0.443,0.27-0.912,0.507-1.458,0.669
			c-0.077,0.224-0.221,0.425-0.426,0.567l0,0C32.063,28.162,32.875,27.695,33.615,27.183z"/>
	</g>
	<g>
		<path d="M41.842,33.515c-0.016,0-0.559-0.062-1.291-0.144c-0.248,0.142-0.498,0.266-0.744,0.37
			c0.729,0.082,1.385,0.156,1.73,0.196c-0.148,0.518-0.652,1.754-2.141,2.093c-2.482,0.563-4.842,0.894-7.887,1.102
			c-1.24,0.086-2.381,0.128-3.487,0.128c-2.968,0-5.625-0.296-8.361-0.938c-0.475-0.108-0.937-0.151-1.384-0.188
			c-1.015-0.091-1.814-0.159-2.229-1.005c-0.297-0.608-0.412-2.042-0.441-2.496c0.359-0.198,1.4-0.77,1.904-1.036
			c0.013-0.008,0.028-0.015,0.042-0.021c-0.123-0.098-0.222-0.22-0.291-0.361c-0.633,0.336-2.001,1.091-2.001,1.091l-0.123,0.067
			l0.006,0.143c0.005,0.08,0.101,2.005,0.496,2.811c0.526,1.077,1.534,1.165,2.599,1.257c0.431,0.038,0.876,0.076,1.32,0.18
			c2.771,0.647,5.46,0.952,8.465,0.952c1.117,0,2.269-0.044,3.518-0.129c3.07-0.215,5.449-0.545,7.955-1.114
			c2.189-0.497,2.543-2.677,2.545-2.697l0.035-0.234L41.842,33.515z"/>
	</g>
	<g>
		<path d="M42.4,29.403c-1.123,0.408-2.143,0.978-3.236,1.436c-0.602,0.251-1.242,0.494-1.945,0.505
			c-0.678,0.008-1.344-0.115-2.002-0.227c-1.332-0.225-2.885-0.814-4.264-0.56c-0.976,0.177-1.743,0.683-2.805,0.685
			c-0.864,0.002-1.588-0.218-2.339-0.514c-0.63-0.247-1.269-0.502-1.906-0.74c-0.823-0.31-1.488-0.457-2.416-0.457
			c-0.902-0.001-1.986,0.181-2.841-0.102c-0.447-0.147-0.867-0.52-1.209-0.792c-0.265-0.21-0.527-0.423-0.778-0.643
			c-0.016-0.015-0.037-0.034-0.057-0.058c-0.054,0.015-0.085,0.023-0.085,0.023s-0.785,4.764,3.725,4.094
			c1.517-0.223,3.006-0.331,4.551-0.102c1.804,0.264,3.383,1.082,5.036,1.688c2.064,0.754,4,1.203,6.275,0.967
			c1.146-0.119,2.316-0.175,3.432-0.443c1.24-0.299,2.281-1.511,2.281-1.511s1.623-2.91,1.648-3.592
			C43.107,29.185,42.721,29.286,42.4,29.403z"/>
	</g>
	<g>
		<path d="M24.019,28.907c3.067,0.344,6.013,0.061,8.79-0.947c1.51-0.549,2.955-1.21,4.557-1.611
			c0.807-0.204,1.658-0.351,2.514-0.322c0.287,0.01,0.279-0.177,0.105-0.424c-0.006,0-0.012,0-0.02,0c-0.725,0-1.404-0.074-2.121,0
			c-0.99,0.102-1.844,0.483-2.826,0.606c-0.646,0.083-1.277,0.012-1.895,0.211c-0.924,0.295-1.814,0.807-2.857,0.791
			c-1.139-0.018-2.503-0.474-3.571-0.02c-0.46,0.195-0.929,0.517-1.481,0.504c-0.678-0.017-1.272-0.403-1.775-0.709
			c-0.248-0.15-0.491-0.335-0.798-0.417c-0.315-0.081-0.641-0.032-0.966-0.047c-0.446-0.022-1.147-0.07-1.534-0.25
			c-0.42-0.194-0.788-0.635-1.056-0.951c-0.194-0.229-0.424-0.433-0.583-0.669c-0.222,0.168-1.091,0.866-1.139,1.439
			c-0.036,0.418,0.874,0.69,1.238,0.949C20.154,28.139,21.813,28.658,24.019,28.907z"/>
	</g>
	<g>
		<path d="M38.367,22.394c-0.033,0.048-0.064,0.092-0.096,0.122c-0.256,0.256-0.623,0.297-0.977,0.458
			c-0.408,0.187-0.811,0.324-1.229,0.485c-0.551,0.212-1.039,0.441-1.645,0.562c-0.836,0.167-1.6,0.11-2.447,0.057
			c-0.711-0.044-1.462,0.03-2.136,0.204c-0.664,0.171-1.167,0.146-1.855,0.053c-1.066-0.145-1.93-0.762-3.036-0.721
			c-0.375,0.014-0.713,0.194-1.095,0.207c-0.508,0.011-0.878-0.263-1.246-0.486c-0.621-0.383-1.303-0.596-2.111-0.589
			c-0.137,0.002-0.304,0.013-0.482,0.037c-0.001,0.005-0.002,0.008-0.002,0.008s0.938,0.902,1.461,0.965
			c0.756,0.091,1.132,0.043,1.844,0.307c0.657,0.246,1.197,0.619,1.858,0.858c2.431,0.894,5.047,0.656,7.55,0.149
			c2.064-0.419,3.115,0.455,5.168-0.159C39.01,24.576,39.215,23.095,38.367,22.394z"/>
	</g>
	<g>
		<path d="M32.199,23.066c1.584-0.414,5.307-2.304,4.166-3.679c-0.293,0.237-0.551,0.603-0.697,0.808
			c-0.189,0.264-0.297,0.534-0.602,0.738c-0.605,0.407-1.691,0.442-2.457,0.505c-0.898,0.073-1.596,0.11-2.391,0.467
			c-0.454,0.203-1.016,0.429-1.543,0.479c-0.575,0.055-1.037-0.198-1.583-0.257c-0.522-0.06-1.028-0.053-1.548-0.146
			c-0.509-0.092-0.921-0.296-1.397-0.438c-0.726-0.216-1.646-0.36-2.426-0.331c-0.591,0.024-1.153,0.162-1.682,0.364
			c-0.069,0.026-0.254,0.088-0.448,0.168c0.034,0.201,0.235,0.377,0.665,0.46l0.089-0.039c0.371-1.411,3.235,0.202,3.946,0.56
			C26.136,23.652,30.176,23.597,32.199,23.066z"/>
	</g>
	<g>
		<path d="M35.68,18.639c0.064-0.259,0.025-0.462-0.08-0.63c-0.072,0.041-0.146,0.081-0.221,0.107
			c-1.076,0.395-2.375,0.162-3.504,0.073c-0.585-0.049-1.054,0.004-1.589,0.169c-0.514,0.16-0.917,0.047-1.443-0.023
			c-0.855-0.116-1.713-0.019-2.51,0.267c-0.265,0.094-0.471,0.258-0.758,0.299c-0.24,0.038-0.589,0.014-0.823-0.02
			c-0.604-0.086-1.174-0.46-1.789-0.464c-0.425-0.003-0.782,0.164-1.136,0.323c-0.208,1.423,1.72,2.188,4.413,1.997
			c1.952-0.138,3.379-1.221,5.047-1.851C33.027,18.229,34.064,19.012,35.68,18.639z"/>
	</g>
	<g>
		<path d="M31.652,18.052H31.65c-0.67,0-1.371-0.072-1.935-0.128c-0.207-0.021-0.398-0.041-0.568-0.057
			c-0.27-0.022-0.577-0.135-0.932-0.268c-0.631-0.234-1.418-0.524-2.463-0.524c-0.762,0-1.567,0.163-2.39,0.479L23.248,17.6
			l-0.098-0.07c-0.214-0.146-0.412-0.303-0.588-0.464l-0.137-0.129l0.099-0.16c0.302-0.482,0.827-1.056,0.849-1.079l0.043-0.036
			c0.062-0.04,1.534-0.998,2.195-1.252l0.121-0.044l0.102,0.08c0.063,0.053,0.125,0.11,0.184,0.167
			c0.045,0.044,0.087,0.086,0.129,0.119c0.225,0.178,0.465,0.289,0.828,0.377l0.248,0.063c0.685,0.175,1.334,0.293,1.886,0.04
			c0.497-0.227,0.725-0.831,0.661-1.286c-0.055-0.379-0.264-0.704-0.486-1.05c-0.104-0.161-0.209-0.324-0.305-0.5l-0.055-0.099
			c-0.272-0.492-0.726-1.313-0.229-1.874c0.254-0.284,0.78-0.446,1.169-0.461h0.062c0.326,0,0.54,0.091,0.655,0.276l0.155,0.254
			l-0.338,0.094c-0.283,0.131-0.431,0.332-0.449,0.627c-0.063,0.965,1.272,2.523,1.861,2.888c0.162,0.1,0.361,0.21,0.576,0.327
			c0.904,0.499,2.031,1.117,2.135,1.939c0.045,0.367-0.113,0.721-0.471,1.056C33.584,17.84,32.799,18.052,31.652,18.052z
			 M25.752,16.621c1.126,0,1.991,0.319,2.622,0.554c0.325,0.12,0.605,0.226,0.813,0.242c0.172,0.014,0.365,0.035,0.574,0.056
			c0.584,0.059,1.243,0.127,1.89,0.127h0.002c1.025,0,1.709-0.174,2.088-0.525c0.25-0.234,0.357-0.453,0.33-0.668
			c-0.076-0.595-1.133-1.176-1.904-1.6c-0.221-0.123-0.428-0.236-0.598-0.34c-0.652-0.404-2.148-2.117-2.072-3.305
			c0.018-0.307,0.139-0.566,0.35-0.764c-0.311,0.018-0.676,0.154-0.811,0.305c-0.285,0.321,0.059,0.942,0.287,1.354l0.056,0.103
			c0.091,0.165,0.189,0.321,0.288,0.47c0.238,0.372,0.484,0.755,0.555,1.232c0.086,0.608-0.207,1.435-0.923,1.763
			c-0.666,0.304-1.463,0.171-2.188-0.015l-0.244-0.063c-0.431-0.106-0.722-0.239-1.002-0.462c-0.053-0.042-0.108-0.095-0.165-0.149
			c-0.017-0.017-0.034-0.034-0.052-0.051c-0.62,0.274-1.776,1.022-1.958,1.139c-0.082,0.093-0.423,0.473-0.675,0.831
			c0.095,0.082,0.193,0.16,0.297,0.233C24.148,16.778,24.969,16.621,25.752,16.621z"/>
	</g>
	<g>
		<path d="M34.137,15.98c-0.135,0.043-0.262,0.114-0.389,0.21c-0.645,0.482-2.219,0.864-3.093,0.61
			c-0.434-0.122-0.77-0.369-1.229-0.484c-0.698-0.175-1.288-0.202-2.004-0.1c-1.123,0.161-2.155,0.163-3.225-0.084
			c-0.265-0.062-0.504-0.125-0.749-0.179c-0.374,0.421-1.716,2.005-0.27,1.427c3.261-1.31,5.03,0.182,5.987,0.263
			c1.293,0.107,3.746,0.517,4.73-0.405C34.383,16.781,34.383,16.361,34.137,15.98z"/>
	</g>
	<g>
		<path d="M41.102,35.253c0.523-0.632,0.68-1.325,0.707-1.474c-0.014,0.002-0.025,0.006-0.041,0.009
			c-0.1,0.073-0.197,0.14-0.229,0.154c-0.346,0.152-0.734,0.265-1.111,0.363c-0.859,0.229-1.738,0.477-2.59,0.741
			c-2.869,0.887-6.004,1.059-9.023,0.486c-0.47-0.09-0.948-0.199-1.43-0.303c-0.693,0.006-1.385-0.035-2.066-0.149
			c-0.427-0.071-0.853-0.168-1.273-0.28c-1.256-0.058-2.467-0.101-3.722-0.43c-0.968-0.257-2.021-0.484-2.904-0.894
			c-0.447-0.206-1-0.388-1.41-0.63c-0.195-0.117-0.373-0.261-0.561-0.388c-0.049,0.026-0.077,0.044-0.077,0.044
			s0.008,0.143,0.024,0.367c0.586,0.862,1.416,1.724,2.009,2.147c2.141,1.527,4.071,0.318,6.542,0.381
			c0.864,0.021,1.647,0.471,2.491,0.666c0.924,0.211,1.93,0.177,2.829,0.362c0.946,0.193,1.655,0.483,2.678,0.421
			c0.986-0.061,1.719-0.428,2.619-0.703c1.934-0.593,3.934-0.31,5.877-0.723C40.67,35.375,40.887,35.314,41.102,35.253z"/>
	</g>
	<g>
		<g>
			<path d="M40.172,8.604c-0.703-0.234-1.229-0.562-1.205-0.744l-3.445,10.527c0.143,0.069,0.275,0.152,0.398,0.246l3.352-10.246
				l1.727,0.56l-4.074,12.451c0.143,0.067,0.279,0.143,0.404,0.229l4.205-12.853C41.357,8.879,40.801,8.813,40.172,8.604z"/>
		</g>
		<path d="M39.061,7.726C39,7.902,39.541,8.244,40.266,8.486s1.246,0.251,1.305,0.073c0.057-0.181-0.373-0.482-1.098-0.726
			C39.748,7.594,39.117,7.543,39.061,7.726z"/>
	</g>
	<g>
		<g>
			<path d="M35.857,6.534c-0.133,0.156-0.682,0.277-1.344,0.286c-0.742,0.006-1.346-0.131-1.385-0.312l0.166,8.686
				c0.174,0.057,0.33,0.156,0.459,0.298l-0.162-8.585l1.816-0.034l0.215,11.356c0.139,0.155,0.256,0.308,0.314,0.519
				c0.033,0.12,0.041,0.256,0.033,0.393c0.027,0.042,0.053,0.086,0.074,0.133c0.023,0.052,0.037,0.106,0.057,0.158L35.857,6.534z"/>
		</g>
		<path d="M33.172,6.351c0.006,0.188,0.629,0.334,1.391,0.324c0.764-0.006,1.262-0.167,1.256-0.356
			c-0.004-0.188-0.51-0.333-1.273-0.325C33.781,6.002,33.166,6.162,33.172,6.351z"/>
	</g>
</g>
</svg>
