<?xml version="1.0" encoding="utf-8"?>
<!-- Generator: Adobe Illustrator 16.0.0, SVG Export Plug-In . SVG Version: 6.00 Build 0)  -->
<!DOCTYPE svg PUBLIC "-//W3C//DTD SVG 1.1//EN" "http://www.w3.org/Graphics/SVG/1.1/DTD/svg11.dtd">
<svg version="1.1" id="Calque_1" xmlns="http://www.w3.org/2000/svg" xmlns:xlink="http://www.w3.org/1999/xlink" x="0px" y="0px"
	 width="58.833px" height="53.5px" viewBox="0 0 58.833 53.5" enable-background="new 0 0 58.833 53.5" xml:space="preserve">
<path fill-rule="evenodd" clip-rule="evenodd" d="M10.232,27.182c-0.667-1.262-0.959-2.493,0.046-3.707
	c-0.216-0.04-0.415-0.073-0.611-0.113c-1.015-0.208-1.427-0.958-1.594-1.866c-0.105-0.571-0.108-1.163-0.124-1.746
	c-0.011-0.378,0.326-0.565,0.683-0.478c0.584,0.142,1.178,0.252,1.771,0.35c0.315,0.052,0.64,0.052,0.935,0.074
	c0.086-0.478,0.136-0.943,0.257-1.389c0.152-0.559,0.467-1.025,0.962-1.353c0.781-0.516,1.587-0.462,2.345-0.005
	c0.596,0.359,1.129,0.823,1.695,1.245c0.876-1.292,1.822-2.612,3.53-2.866c0.048-0.638,0.026-1.26,0.156-1.85
	c0.236-1.081,1.15-1.65,2.247-1.565c0.997,0.077,1.865,0.453,2.684,0.99c0.048,0.032,0.096,0.062,0.13,0.083
	c0.358-0.392,0.684-0.796,1.059-1.147c0.779-0.729,1.698-1.151,2.787-1.063c1.035,0.083,1.897,0.571,2.628,1.283
	c0.404,0.393,0.764,0.833,1.111,1.219c0.478-0.339,0.949-0.742,1.479-1.041c1.249-0.703,2.513-0.5,3.525,0.514
	c0.22,0.22,0.423,0.458,0.634,0.689c1.188-0.54,2.045-0.325,3.039,0.767c0.211,0.23,0.407,0.475,0.627,0.732
	c0.642-0.528,1.24-1.09,1.731-1.766c0.115-0.159,0.309-0.298,0.495-0.36c0.369-0.122,0.662,0.059,0.742,0.438
	c0.202,0.958,0.651,1.81,1.106,2.658c0.462-0.164,0.908-0.345,1.368-0.48c0.621-0.182,1.249-0.202,1.854,0.074
	c0.896,0.409,1.321,1.167,1.196,2.156c-0.051,0.394-0.148,0.781-0.229,1.197c0.063,0.003,0.144,0.015,0.225,0.011
	c1.176-0.049,2.279,0.229,3.34,0.717c0.24,0.111,0.447,0.254,0.461,0.55c0.016,0.314-0.095,0.559-0.375,0.738
	c-1.948,1.247-3.262,2.937-4.248,4.927c0.357-0.049,0.699-0.094,1.039-0.144c0.322-0.048,0.637-0.078,0.943,0.082
	c0.063,0.033,0.162-0.001,0.243,0c0.229,0.007,0.472-0.028,0.686,0.034c0.468,0.137,0.659,0.591,0.488,1.087
	c-0.657,1.906-1.62,3.648-2.867,5.232c-2.247,2.852-5.095,4.918-8.39,6.403c-2.287,1.031-4.674,1.72-7.149,2.087
	c-1.828,0.271-3.667,0.367-5.521,0.268c-2.425-0.13-4.804-0.511-7.132-1.191c-2.665-0.779-5.176-1.891-7.407-3.572
	c-2.335-1.762-4.09-3.953-4.97-6.781c-0.147-0.472-0.247-0.959-0.358-1.441C9.376,27.291,9.649,27.026,10.232,27.182z
	 M50.871,27.676c-0.61,0.088-1.18,0.158-1.744,0.254c-1.421,0.242-2.84,0.494-4.258,0.744c-1.574,0.277-3.145,0.572-4.721,0.828
	c-1.568,0.254-3.138,0.512-4.715,0.685c-1.455,0.161-2.92,0.232-4.382,0.309c-2.121,0.11-4.233-0.038-6.335-0.319
	c-1.275-0.171-2.551-0.352-3.821-0.564c-1.93-0.326-3.855-0.68-5.781-1.03c-1.085-0.196-2.168-0.421-3.28-0.374
	c-0.291,0.012-0.58,0.065-0.908,0.104c0.148,0.218,0.258,0.38,0.368,0.54c2.26,3.291,5.051,5.992,8.647,7.805
	c2.433,1.226,5.016,1.918,7.717,2.17c1.741,0.164,3.485,0.131,5.229-0.041c1.927-0.191,3.817-0.547,5.665-1.127
	c4.027-1.263,7.527-3.342,10.213-6.662C49.584,29.982,50.276,28.887,50.871,27.676z M20.981,15.385
	c1.39,0.321,1.996,1.396,2.474,2.592c0.686-0.248,1.367-0.396,2.079-0.348c0.592,0.041,1.14,0.209,1.56,0.645
	c0.911,0.944,1.133,2.119,1.069,3.374c-0.015,0.306-0.079,0.61-0.122,0.927c1.017,0.27,1.725,0.948,2.359,1.717
	c0.931,1.129,1.605,2.419,2.273,3.711c0.211,0.409,0.206,0.411,0.686,0.349c-0.059-0.324-0.129-0.646-0.176-0.973
	c-0.186-1.325,0.062-2.553,0.904-3.612c1.242-1.563,2.95-2.218,4.879-2.371c1.047-0.083,2.084,0.022,3.1,0.428
	c0.16-0.881,0.246-1.729-0.029-2.57c-0.234-0.714-0.681-1.01-1.43-0.997c-0.547,0.01-1.029,0.194-1.465,0.514
	c-0.6,0.441-0.974,1.057-1.307,1.704c-0.122,0.238-0.299,0.386-0.575,0.38c-0.267-0.006-0.45-0.131-0.583-0.37
	c-0.365-0.661-0.746-1.314-1.129-1.984c-0.15,0.138-0.291,0.271-0.435,0.401c-0.663,0.597-1.308,1.208-1.739,2.004
	c-0.231,0.429-0.587,0.484-0.949,0.153c-0.31-0.283-0.643-0.542-0.944-0.833c-0.553-0.535-1.133-0.495-1.745-0.125
	c-0.008,0.005-0.017,0.008-0.026,0.013c-0.488,0.268-0.746,0.743-0.672,1.292c0.028,0.209,0.102,0.415,0.172,0.616
	c0.073,0.209,0.041,0.367-0.177,0.448c-0.224,0.083-0.327-0.054-0.386-0.24c-0.223-0.712-0.383-1.434-0.321-2.187
	c0.037-0.458,0.217-0.854,0.571-1.15c0.652-0.546,1.385-0.573,2.104-0.193c0.605,0.32,1.164,0.73,1.737,1.097
	c0.25-0.299,0.521-0.644,0.813-0.97c0.595-0.66,1.194-1.316,1.807-1.959c0.096-0.1,0.27-0.16,0.411-0.167
	c0.321-0.018,0.522,0.197,0.664,0.549c0.244,0.602,0.519,1.19,0.791,1.808c0.291-0.313,0.532-0.574,0.733-0.792
	c-0.07-0.182-0.146-0.325-0.184-0.478c-0.273-1.109-0.443-2.219-0.013-3.333c0.021-0.055-0.008-0.154-0.049-0.204
	c-0.338-0.413-0.77-0.661-1.31-0.669c-1.164-0.02-2.129,0.513-3.029,1.162c-0.495,0.357-0.807,0.351-1.123-0.168
	c-0.34-0.558-0.757-1.046-1.28-1.436c-0.815-0.608-1.71-0.925-2.739-0.677c-0.965,0.233-1.615,0.868-2.131,1.673
	c-0.265,0.414-0.658,0.475-1.031,0.156c-0.435-0.373-0.921-0.645-1.479-0.794C22.145,13.104,20.981,13.923,20.981,15.385z
	 M35.5,28.126c-0.051-0.184-0.098-0.351-0.141-0.519c-0.271-1.045-0.219-2.057,0.395-2.978c0.723-1.088,2.259-1.57,3.66-1.154
	c1.34,0.397,2.207,1.343,2.833,2.543c0.169,0.324,0.297,0.669,0.442,1.002c0.27-0.044,0.529-0.083,0.787-0.128
	c1.525-0.266,3.05-0.539,4.577-0.793c0.178-0.03,0.236-0.101,0.29-0.251c0.516-1.419,1.269-2.7,2.297-3.805
	c0.536-0.577,1.129-1.102,1.694-1.649c-0.124-0.032-0.271-0.077-0.423-0.104c-0.191-0.033-0.386-0.066-0.58-0.073
	c-1.698-0.053-3.018,0.655-3.986,2.029c-0.782,1.107-1.092,2.356-1.045,3.702c0.006,0.176,0.035,0.374-0.221,0.398
	c-0.232,0.023-0.287-0.151-0.338-0.327c-0.232-0.812-0.297-1.644-0.121-2.464c0.415-1.955,1.484-3.426,3.323-4.291
	c0.069-0.032,0.155-0.102,0.169-0.167c0.104-0.474,0.238-0.948,0.271-1.43c0.043-0.621-0.215-1.06-0.865-1.075
	c-0.154-0.004-0.319,0.014-0.46,0.071c-0.53,0.216-1.06,0.436-1.574,0.685c-0.493,0.239-0.838,0.147-1.082-0.333
	c-0.079-0.157-0.163-0.311-0.241-0.468c-0.297-0.585-0.593-1.171-0.885-1.75c-0.563,0.489-1.123,0.975-1.684,1.461
	c-0.33,0.288-0.694,0.257-0.963-0.088c-0.162-0.208-0.293-0.444-0.477-0.63c-0.402-0.407-0.809-0.815-1.254-1.172
	c-0.217-0.173-0.522-0.197-0.768,0.035c0.285,0.651,0.072,0.906-0.509,1.07c0,0.747,0,1.493,0,2.292
	c0.831-0.472,1.626-0.65,2.474-0.449c1.316,0.313,2.282,1.55,2.314,3.029c0.016,0.695-0.079,1.392-0.128,2.141
	c1.166,0.826,1.737,2.057,1.835,3.537c0.027,0.42-0.316,0.7-0.697,0.576c-0.238-0.078-0.336-0.268-0.414-0.49
	c-0.373-1.047-0.931-1.977-1.815-2.675c-1.062-0.837-2.272-1.117-3.604-0.934c-1.217,0.168-2.336,0.577-3.24,1.428
	c-1.263,1.189-1.537,2.672-1.176,4.353C34.616,28.229,35.049,28.178,35.5,28.126z M14.504,23.513c0.02-0.069,0.039-0.123,0.05-0.179
	c0.013-0.057,0.017-0.116,0.027-0.173c0.153-0.873,0.569-1.564,1.36-2.006c0.587-0.33,1.227-0.451,1.884-0.461
	c1.659-0.027,3.184,0.474,4.631,1.242c0.874,0.463,1.664,1.042,2.342,1.775c0.566-0.472,1.129-0.903,1.834-1.095
	c0.051-0.013,0.11-0.084,0.124-0.139c0.183-0.732,0.33-1.468,0.089-2.217c-0.277-0.862-0.804-1.315-1.6-1.356
	c-0.657-0.034-1.265,0.178-1.867,0.409c-0.448,0.172-0.747-0.003-0.877-0.464c-0.111-0.392-0.223-0.791-0.399-1.155
	c-0.521-1.08-1.392-1.41-2.495-0.954c-1.03,0.424-1.762,1.204-2.382,2.097c-0.046,0.068-0.023,0.195-0.01,0.292
	c0.036,0.259-0.045,0.47-0.268,0.602c-0.218,0.126-0.412,0.045-0.576-0.125c-0.103-0.105-0.195-0.221-0.305-0.317
	c-0.49-0.429-0.966-0.878-1.486-1.268c-0.313-0.234-0.713-0.337-1.113-0.253c-0.531,0.11-0.752,0.54-0.872,1
	c-0.12,0.46-0.179,0.936-0.245,1.408c-0.058,0.418-0.277,0.568-0.679,0.509c-0.882-0.128-1.769-0.227-2.671-0.339
	c0,0.228-0.019,0.387,0.004,0.54c0.073,0.505,0.123,1.081,0.642,1.305c0.591,0.255,1.242,0.374,1.867,0.549
	c0.035,0.01,0.078-0.003,0.116-0.013C12.73,22.451,13.694,22.684,14.504,23.513z M15.4,27.005c0.882,0.09,1.746,0.157,2.603,0.271
	c0.853,0.113,1.701,0.273,2.556,0.413c0.021-0.571,0.194-1.075,0.512-1.498c0.311-0.413,0.697-0.768,1.054-1.154
	c-1.849-2.193-4.843-1.922-7.106-0.735C15.401,25.165,15.52,26.07,15.4,27.005z M27.003,26.166c0.29,0.598,0.608,1.15,0.829,1.739
	c0.198,0.527,0.493,0.751,1.054,0.658c0.257-0.042,0.527-0.001,0.79-0.008c0.66-0.018,1.319-0.043,2.021-0.065
	c-0.687-1.366-1.291-2.729-2.249-3.886c-0.383-0.462-0.836-0.844-1.423-1.038c-0.25-0.083-0.434-0.088-0.558,0.207
	c-0.085,0.205-0.286,0.357-0.515,0.306c-0.169-0.039-0.315-0.186-0.533-0.325c-0.172,0.104-0.427,0.26-0.683,0.415
	c0.128,0.296,0.315,0.469,0.611,0.56c0.295,0.09,0.574,0.238,0.854,0.374c0.255,0.125,0.358,0.335,0.313,0.622
	S27.296,26.143,27.003,26.166z M41.617,27.226c-0.267-1.01-1.072-2.042-1.937-2.505c-0.79-0.422-1.604-0.471-2.417-0.084
	c-1.161,0.554-1.477,2.153-1.146,3.438C37.939,27.793,39.766,27.512,41.617,27.226z M23.951,25.727
	c0.06,0.382,0.069,0.65-0.235,0.785c-0.417,0.186-0.479-0.259-0.709-0.412c-0.757,0.365-1.143,1.009-1.349,1.791
	c1.946,0.4,3.902,0.621,5.938,0.656c-0.566-0.855-1.101-1.667-1.642-2.475c-0.032-0.048-0.104-0.09-0.164-0.098
	C25.196,25.889,24.602,25.813,23.951,25.727z M14.287,26.957c0-0.36,0.005-0.778-0.001-1.196c-0.016-1.028-0.602-1.732-1.604-1.937
	c-1.049-0.214-1.899,0.538-1.747,1.594c0.059,0.414,0.215,0.829,0.401,1.206c0.166,0.335,0.249,0.617,0.006,0.868
	C12.275,27.322,13.237,27.147,14.287,26.957z M23.773,24.478c-0.047-0.056-0.083-0.102-0.123-0.145
	c-0.045-0.051-0.093-0.101-0.141-0.149c-1.326-1.339-2.923-2.128-4.798-2.312c-0.84-0.081-1.68-0.036-2.449,0.394
	c-0.556,0.31-1.01,0.921-1.041,1.416c1.261-0.622,2.579-0.989,3.996-0.943c1.444,0.047,2.721,0.506,3.709,1.585
	C23.204,24.625,23.433,24.656,23.773,24.478z M10.414,27.51c0.089,0.131,0.172,0.252,0.25,0.366
	c0.115-0.065,0.212-0.121,0.294-0.169C10.78,27.644,10.605,27.58,10.414,27.51z"/>
</svg>
