<?xml version="1.0" encoding="utf-8"?>
<!-- Generator: Adobe Illustrator 16.0.0, SVG Export Plug-In . SVG Version: 6.00 Build 0)  -->
<!DOCTYPE svg PUBLIC "-//W3C//DTD SVG 1.1//EN" "http://www.w3.org/Graphics/SVG/1.1/DTD/svg11.dtd">
<svg version="1.1" id="Calque_1" xmlns="http://www.w3.org/2000/svg" xmlns:xlink="http://www.w3.org/1999/xlink" x="0px" y="0px"
	 width="58.833px" height="53.5px" viewBox="0 0 58.833 53.5" enable-background="new 0 0 58.833 53.5" xml:space="preserve">
<g>
	<path fill="#333333" stroke="#1A171B" stroke-width="0.75" stroke-miterlimit="10" d="M54.717,16.932
		c-0.008-0.086-0.033-0.162-0.067-0.227c-0.403-2.804-2.737-4.936-5.293-5.977c-4.564-1.86-10.035-1.579-14.814-0.948
		c-4.768,0.629-9.695,1.597-14.185,3.366c-6.686,2.635-13.12,9.121-11.598,16.493c-0.007,0.041-0.021,0.076-0.019,0.123
		c0.27,5.105,1.183,10.77,6.45,13.024c5.746,2.458,11.373,1.405,16.901-1.117c2.649-1.21,5.418-2.81,7.489-4.888
		c2.438-2.445,3.997-5.629,6.538-8.012c1.842-1.727,3.717-2.324,5.899-3.43c0.659-0.334,1.181-0.599,1.675-1.161
		C55.403,22.227,54.931,19.289,54.717,16.932z M13.535,18.684c3.223-3.334,7.85-4.956,12.239-6.07
		c4.969-1.261,10.14-2.226,15.282-2.144c2.522,0.04,5.214,0.259,7.595,1.163c2.252,0.856,4.658,2.901,4.958,5.358l0.001,0.001
		c0.1,0.819-0.035,1.683-0.486,2.565c-1.625,3.168-6.256,3.935-8.941,5.964c-3.304,2.496-5.584,6.045-8.617,8.827
		c-7.535,6.906-20.453,8.946-24.838-2.344c-0.009-0.023-0.026-0.036-0.037-0.058c-0.008-0.025-0.007-0.05-0.019-0.075
		C8.491,27.342,10.18,22.155,13.535,18.684z M51.114,24.515c-2.09,1.108-4.031,1.791-5.782,3.467
		c-1.684,1.611-3.043,3.494-4.424,5.359c-1.902,2.569-4.042,4.393-6.781,6.021c-4.517,2.683-10.346,4.678-15.575,3.371
		c-3.393-0.848-5.874-2.287-7.327-5.569c-0.551-1.244-0.857-2.416-1.044-3.608c1.34,2.939,3.258,5.376,6.399,6.66
		c3.645,1.489,7.831,1.341,11.508,0.05c8.814-3.094,12.673-12.176,20.839-16.157c1.771-0.864,3.678-1.904,4.801-3.475
		C53.562,22.206,52.922,23.559,51.114,24.515z"/>
	<path fill="#333333" stroke="#1A171B" stroke-width="0.25" stroke-miterlimit="10" d="M11.99,28.916
		c0.002,0.027-0.006,0.053,0,0.081c1.33,6.869,7.796,8.915,14.144,7.716c3.514-0.662,6.322-2.977,8.746-5.484
		c3.184-3.294,6.195-6.451,10.04-9.009c1.866-1.243,4.688-2.384,4.702-5.106c0.006-1.342-1.346-2.996-2.482-3.584
		c-2.213-1.145-5.413-1.018-7.834-0.932c-3.623,0.129-7.02,0.867-10.529,1.741c-7.386,1.839-17.768,4.766-16.805,14.51
		C11.973,28.875,11.985,28.893,11.99,28.916z M31.68,14.783c3.279-0.773,15.734-3.376,16.557,2.09
		c0.354,2.351-1.984,3.179-3.605,4.213c-1.336,0.851-2.586,1.859-3.854,2.809c-2.785,2.086-4.904,4.809-7.363,7.238
		c-3.044,3.01-6.288,4.674-10.619,4.827c-4.915,0.174-8.758-2.392-9.717-7.196C12.154,18.674,24.32,16.518,31.68,14.783z"/>
	<path fill="#333333" d="M21.576,28.89c2.035,0.247,4.482-0.741,5.448-2.636c0.445-0.872,0.408-2.012-0.205-2.801
		c-0.554-0.712-1.395-0.801-2.237-0.935c-0.025-0.004-0.046,0.004-0.071,0.003c-0.027-0.006-0.048-0.021-0.077-0.023
		c-1.961-0.174-5.178,0.767-5.9,2.838C17.838,27.336,19.816,28.676,21.576,28.89z M20.99,24.394
		c0.978-0.594,2.323-0.882,3.444-0.783c0.004,0,0.007-0.001,0.011-0.001c0.33,0.036,0.747,0.055,1.021,0.199
		c1.376,0.725,0.491,2.228-0.247,2.91c-0.836,0.775-2.092,1.144-3.212,1.096C19.968,27.729,18.422,25.955,20.99,24.394z"/>
	<path fill="#333333" d="M35.819,17.106c0.716,0,0.718-1.113,0-1.113C35.104,15.993,35.102,17.106,35.819,17.106z"/>
	<path fill="#333333" d="M37.757,16.333c1.953-0.54,4.001-0.99,5.824,0.167c0.606,0.385,1.166-0.578,0.562-0.961
		c-2.076-1.317-4.439-0.899-6.682-0.279C36.771,15.451,37.064,16.525,37.757,16.333z"/>
</g>
</svg>
