<?xml version="1.0" encoding="utf-8"?>
<!-- Generator: Adobe Illustrator 16.0.0, SVG Export Plug-In . SVG Version: 6.00 Build 0)  -->
<!DOCTYPE svg PUBLIC "-//W3C//DTD SVG 1.1//EN" "http://www.w3.org/Graphics/SVG/1.1/DTD/svg11.dtd">
<svg version="1.1" id="Calque_1" xmlns="http://www.w3.org/2000/svg" xmlns:xlink="http://www.w3.org/1999/xlink" x="0px" y="0px"
	 width="58.833px" height="53.5px" viewBox="0 0 58.833 53.5" enable-background="new 0 0 58.833 53.5" xml:space="preserve">
<g>
	<g>
		<path fill="#333333" stroke="#1A171B" stroke-width="0.75" stroke-miterlimit="10" d="M29.417,50.742
			c-13.562,0-24.594-10.606-24.594-23.641c0-13.032,11.033-23.638,24.594-23.638c13.561,0,24.592,10.605,24.592,23.638
			C54.01,40.136,42.979,50.742,29.417,50.742z M29.417,4.059C16.187,4.059,5.42,14.394,5.42,27.102s10.766,23.047,23.997,23.047
			S53.412,39.81,53.412,27.102S42.648,4.059,29.417,4.059z"/>
	</g>
	<g>
		<path fill="#333333" stroke="#1A171B" stroke-width="0.25" stroke-miterlimit="10" d="M10.323,37.838l-0.15-0.253
			c-1.88-3.188-2.877-6.813-2.877-10.483c0-3.672,0.997-7.295,2.877-10.483l0.149-0.251l18.67,10.734L10.323,37.838z M10.542,17.177
			c-1.735,3.033-2.651,6.458-2.651,9.925c0,3.47,0.916,6.892,2.651,9.925l17.255-9.925L10.542,17.177z"/>
	</g>
	<g>
		<path fill="#333333" stroke="#1A171B" stroke-width="0.25" stroke-miterlimit="10" d="M29.205,48.36l-0.308-0.008
			c-7.408-0.163-14.202-3.861-18.175-9.89l-0.173-0.266L29.205,27.47V48.36z M11.395,38.397c3.833,5.63,10.226,9.103,17.21,9.353
			V28.499L11.395,38.397z"/>
	</g>
	<g>
		<path fill="#333333" stroke="#1A171B" stroke-width="0.25" stroke-miterlimit="10" d="M29.205,26.735l-18.656-10.73l0.173-0.262
			c3.973-6.03,10.767-9.729,18.175-9.895l0.308-0.006V26.735z M11.395,15.809l17.21,9.896V6.453
			C21.621,6.704,15.228,10.176,11.395,15.809z"/>
	</g>
	<g>
		<path fill="#333333" stroke="#1A171B" stroke-width="0.25" stroke-miterlimit="10" d="M48.514,37.838L29.842,27.102l18.671-10.734
			l0.145,0.255c1.883,3.185,2.877,6.808,2.877,10.479c0,3.67-0.994,7.295-2.877,10.483L48.514,37.838z M31.036,27.102l17.257,9.925
			c1.73-3.033,2.646-6.457,2.646-9.925c0-3.467-0.916-6.892-2.646-9.925L31.036,27.102z"/>
	</g>
	<g>
		<g>
			<path fill="#333333" stroke="#1A171B" stroke-width="0.25" stroke-miterlimit="10" d="M29.63,48.36V27.47l18.657,10.728
				l-0.174,0.262c-3.971,6.032-10.768,9.73-18.178,9.894L29.63,48.36z M30.228,28.499V47.75c6.987-0.25,13.379-3.723,17.211-9.354
				L30.228,28.499z"/>
		</g>
	</g>
	<g>
		<path fill="#333333" stroke="#1A171B" stroke-width="0.25" stroke-miterlimit="10" d="M29.63,26.735V5.843l0.305,0.006
			c7.411,0.166,14.204,3.864,18.176,9.895l0.176,0.262L29.63,26.735z M30.228,6.453v19.251l17.211-9.896
			C43.607,10.176,37.215,6.704,30.228,6.453z"/>
	</g>
	<path d="M14.118,21.804c-2.826,0-5.115,2.281-5.115,5.093c0,2.813,2.289,5.093,5.115,5.093c2.823,0,5.112-2.279,5.112-5.093
		C19.23,24.085,16.941,21.804,14.118,21.804z M14.066,31.419c-2.505,0-4.54-2.024-4.54-4.522c0-2.493,2.035-4.52,4.54-4.52
		c2.507,0,4.538,2.026,4.538,4.52C18.604,29.395,16.573,31.419,14.066,31.419z M16.673,27.752c-0.331-0.235-0.82-0.62-0.582-1.097
		c0.208-0.407,0.687-0.576,0.875-0.998c0.181-0.415,0.163-1.001-0.398-0.972c-0.456,0.023-0.944,0.461-1.31,0.728
		c-0.169,0.125-0.381,0.376-0.595,0.318c-0.209-0.06-0.303-0.351-0.375-0.545c-0.146-0.37-0.227-0.957-0.637-1.111
		c-0.497-0.2-0.841,0.184-0.882,0.664c-0.044,0.49,0.562,1.39-0.077,1.639c-0.428,0.164-0.956-0.005-1.373,0.181
		c-0.591,0.266-0.838,1.097-0.129,1.432c0.389,0.187,0.957,0.009,1.252,0.437c0.275,0.4-0.181,0.819-0.209,1.229
		c-0.037,0.523,0.167,0.863,0.669,0.901c0.49,0.03,0.815-0.106,1.106-0.528c0.254-0.373,0.253-1.012,0.795-1.104
		c0.505-0.087,1.064,0.339,1.575,0.372c0.393,0.025,1.076-0.032,1.098-0.566C17.495,28.302,16.973,27.964,16.673,27.752z
		 M16.503,25.11c0.097,0,0.175,0.055,0.175,0.125c0,0.067-0.078,0.123-0.175,0.123c-0.094,0-0.171-0.056-0.171-0.123
		C16.332,25.165,16.409,25.11,16.503,25.11z M11.464,27.539c-0.096,0-0.172-0.057-0.172-0.127c0-0.068,0.077-0.123,0.172-0.123
		c0.097,0,0.17,0.055,0.17,0.123C11.635,27.482,11.561,27.539,11.464,27.539z M11.776,27.023c-0.096,0-0.173-0.06-0.173-0.127
		c0-0.068,0.078-0.123,0.173-0.123c0.097,0,0.172,0.055,0.172,0.123C11.948,26.964,11.873,27.023,11.776,27.023z M12.874,29.684
		c-0.098,0-0.176-0.055-0.176-0.124c0-0.071,0.078-0.126,0.176-0.126c0.09,0,0.168,0.055,0.168,0.126
		C13.042,29.629,12.964,29.684,12.874,29.684z M12.967,24.904c0-0.069,0.08-0.125,0.174-0.125c0.097,0,0.173,0.056,0.173,0.125
		s-0.076,0.125-0.173,0.125C13.046,25.029,12.967,24.974,12.967,24.904z M13.356,26.896c-0.099,0-0.173-0.052-0.173-0.123
		c0-0.069,0.075-0.126,0.173-0.126c0.094,0,0.169,0.057,0.169,0.126C13.525,26.845,13.45,26.896,13.356,26.896z M13.852,28.768
		c-0.096,0-0.172-0.055-0.172-0.124c0-0.066,0.077-0.122,0.172-0.122c0.097,0,0.172,0.056,0.172,0.122
		C14.024,28.713,13.949,28.768,13.852,28.768z M13.893,25.153c-0.094,0-0.17-0.057-0.17-0.124c0-0.071,0.076-0.125,0.17-0.125
		c0.096,0,0.173,0.054,0.173,0.125C14.066,25.097,13.989,25.153,13.893,25.153z M14.647,26.055c0-0.066,0.074-0.121,0.169-0.121
		s0.175,0.055,0.175,0.121c0,0.069-0.079,0.127-0.175,0.127S14.647,26.124,14.647,26.055z M14.959,28.237
		c-0.096,0-0.175-0.052-0.175-0.12c0-0.069,0.079-0.127,0.175-0.127c0.094,0,0.17,0.058,0.17,0.127
		C15.129,28.186,15.053,28.237,14.959,28.237z M15.651,28.794c-0.097,0-0.173-0.053-0.173-0.126c0-0.069,0.077-0.122,0.173-0.122
		c0.097,0,0.172,0.053,0.172,0.122C15.824,28.741,15.749,28.794,15.651,28.794z M15.841,25.751c0-0.072,0.078-0.128,0.173-0.128
		c0.097,0,0.173,0.056,0.173,0.128c0,0.069-0.076,0.123-0.173,0.123C15.919,25.874,15.841,25.82,15.841,25.751z M16.562,28.687
		c-0.097,0-0.175-0.054-0.175-0.123c0-0.07,0.078-0.125,0.175-0.125c0.094,0,0.172,0.055,0.172,0.125
		C16.734,28.633,16.655,28.687,16.562,28.687z"/>
	<path d="M41.457,22.26c-2.252,1.696-2.701,4.89-1,7.135c1.699,2.245,4.906,2.692,7.16,0.998c2.254-1.695,2.703-4.89,1.004-7.134
		C46.92,21.016,43.711,20.565,41.457,22.26z M47.232,29.967c-2.004,1.505-4.85,1.108-6.359-0.886
		c-1.512-1.993-1.111-4.828,0.891-6.331c2.002-1.505,4.846-1.106,6.357,0.883C49.631,25.626,49.234,28.463,47.232,29.967z
		 M47.096,25.475c-0.406,0.012-1.031-0.003-1.129-0.526c-0.082-0.445,0.201-0.868,0.094-1.315c-0.105-0.442-0.477-0.9-0.904-0.541
		c-0.352,0.293-0.475,0.934-0.605,1.366c-0.059,0.2-0.076,0.53-0.283,0.609c-0.203,0.079-0.453-0.1-0.627-0.206
		c-0.344-0.21-0.76-0.627-1.182-0.508c-0.516,0.143-0.559,0.65-0.303,1.06c0.26,0.415,1.293,0.772,0.928,1.354
		c-0.24,0.39-0.764,0.57-0.986,0.968c-0.311,0.567-0.006,1.379,0.768,1.224c0.42-0.086,0.766-0.567,1.262-0.404
		c0.459,0.152,0.348,0.76,0.574,1.104c0.289,0.442,0.656,0.593,1.078,0.317c0.412-0.269,0.586-0.569,0.564-1.08
		c-0.02-0.453-0.41-0.962-0.033-1.361c0.352-0.372,1.057-0.369,1.482-0.647c0.328-0.214,0.84-0.67,0.535-1.111
		C48.086,25.422,47.467,25.465,47.096,25.475z M45.363,23.469c0.076-0.058,0.17-0.06,0.213-0.005
		c0.041,0.054,0.014,0.144-0.064,0.205c-0.072,0.055-0.172,0.058-0.213,0.002C45.258,23.616,45.287,23.527,45.363,23.469z
		 M42.809,28.43c-0.076,0.061-0.17,0.061-0.217,0.006c-0.043-0.056-0.012-0.146,0.064-0.206c0.076-0.057,0.172-0.059,0.215-0.001
		C42.912,28.281,42.885,28.374,42.809,28.43z M42.744,27.833c-0.076,0.057-0.174,0.057-0.213,0.002
		c-0.041-0.055-0.014-0.145,0.061-0.2c0.078-0.061,0.172-0.061,0.215-0.008C42.848,27.683,42.822,27.772,42.744,27.833z
		 M45.229,29.3c-0.074,0.058-0.172,0.06-0.211,0.003c-0.043-0.055-0.018-0.146,0.059-0.202c0.078-0.058,0.17-0.06,0.213-0.007
		C45.33,29.152,45.303,29.246,45.229,29.3z M42.416,25.425c-0.045-0.053-0.016-0.146,0.061-0.201
		c0.078-0.059,0.172-0.059,0.215-0.005c0.041,0.056,0.014,0.146-0.063,0.203C42.549,25.479,42.457,25.48,42.416,25.425z
		 M43.928,26.786c-0.076,0.054-0.17,0.059-0.211,0.003c-0.043-0.054-0.012-0.144,0.061-0.204c0.074-0.058,0.172-0.058,0.213-0.005
		C44.033,26.638,44.004,26.726,43.928,26.786z M45.457,27.979c-0.074,0.061-0.168,0.061-0.211,0.004
		c-0.043-0.055-0.016-0.144,0.063-0.2c0.076-0.057,0.17-0.062,0.209-0.007C45.564,27.833,45.533,27.923,45.457,27.979z
		 M43.303,25.067c-0.074,0.058-0.17,0.062-0.211,0.007c-0.043-0.057-0.014-0.149,0.063-0.202c0.074-0.058,0.174-0.062,0.213-0.007
		C43.408,24.919,43.381,25.012,43.303,25.067z M44.451,25.341c-0.041-0.056-0.016-0.147,0.061-0.204
		c0.076-0.058,0.174-0.06,0.215-0.005s0.016,0.147-0.064,0.205C44.586,25.394,44.492,25.394,44.451,25.341z M46.02,26.895
		c-0.074,0.058-0.172,0.061-0.209,0.006c-0.045-0.056-0.018-0.146,0.059-0.203c0.078-0.057,0.172-0.062,0.215-0.005
		C46.125,26.747,46.098,26.838,46.02,26.895z M46.908,26.92c-0.076,0.058-0.17,0.061-0.215,0.004
		c-0.039-0.056-0.012-0.146,0.066-0.2c0.072-0.06,0.166-0.062,0.211-0.007C47.014,26.774,46.986,26.864,46.908,26.92z
		 M45.219,24.375c-0.043-0.055-0.012-0.146,0.064-0.203c0.076-0.057,0.172-0.061,0.213-0.002c0.041,0.055,0.014,0.146-0.063,0.2
		C45.355,24.428,45.262,24.433,45.219,24.375z M47.572,26.292c-0.074,0.056-0.174,0.06-0.213,0.003
		c-0.045-0.056-0.018-0.146,0.061-0.204c0.078-0.056,0.17-0.06,0.215-0.003C47.674,26.141,47.646,26.233,47.572,26.292z"/>
	<path d="M24.102,26.231c-0.323-0.676-1.391-0.845-2.383-0.373c-0.993,0.471-1.537,1.4-1.213,2.076
		c0.323,0.678,1.392,0.844,2.384,0.376C23.885,27.84,24.427,26.908,24.102,26.231z"/>
	<g>
		<path d="M49.361,31.86c0.416,0.628,0.008,1.621-0.906,2.226c-0.922,0.606-2.002,0.59-2.416-0.038
			c-0.416-0.625-0.008-1.622,0.91-2.226C47.865,31.218,48.947,31.233,49.361,31.86z"/>
		<path opacity="0.5" d="M48.824,32.018c0.34,0.512,0.008,1.328-0.738,1.82c-0.752,0.49-1.633,0.478-1.971-0.031
			c-0.34-0.512-0.006-1.326,0.742-1.82C47.607,31.495,48.484,31.51,48.824,32.018z"/>
		<path d="M46.18,33.624c0,0-0.006-0.062-0.014-0.163c-0.008-0.052,0-0.11,0.008-0.184c0-0.075,0.02-0.15,0.045-0.232
			c0.016-0.09,0.064-0.166,0.1-0.258c0.051-0.084,0.094-0.179,0.162-0.258c0.061-0.084,0.131-0.165,0.213-0.24
			c0.076-0.074,0.168-0.138,0.256-0.204c0.096-0.056,0.188-0.113,0.291-0.155c0.096-0.05,0.205-0.076,0.303-0.107
			c0.104-0.019,0.203-0.04,0.303-0.04c0.1-0.003,0.189-0.007,0.275,0.009c0.086,0.006,0.166,0.024,0.234,0.048
			c0.068,0.021,0.125,0.041,0.172,0.067c0.094,0.048,0.146,0.077,0.146,0.077s-0.059-0.016-0.15-0.047
			c-0.049-0.02-0.107-0.03-0.174-0.035c-0.068-0.015-0.143-0.021-0.225-0.018c-0.082-0.009-0.164,0.003-0.258,0.018
			c-0.09,0.009-0.18,0.041-0.27,0.063c-0.189,0.064-0.381,0.146-0.553,0.263c-0.084,0.06-0.17,0.118-0.244,0.188
			c-0.076,0.066-0.15,0.136-0.213,0.215c-0.064,0.068-0.113,0.151-0.17,0.226c-0.041,0.081-0.092,0.149-0.117,0.229
			c-0.027,0.076-0.061,0.143-0.072,0.208s-0.035,0.123-0.031,0.17C46.186,33.566,46.18,33.624,46.18,33.624z"/>
	</g>
	<path d="M34.748,31.86c-0.414-0.627-1.496-0.643-2.414-0.038c-0.917,0.604-1.323,1.601-0.907,2.226
		c0.413,0.628,1.495,0.645,2.413,0.038C34.758,33.481,35.164,32.488,34.748,31.86z"/>
	<g>
		<path d="M34.682,21.396c0.084,0.741-0.732,1.449-1.826,1.571c-1.094,0.127-2.045-0.379-2.133-1.123
			c-0.085-0.747,0.731-1.451,1.825-1.574C33.641,20.145,34.596,20.649,34.682,21.396z"/>
		<path opacity="0.5" d="M34.131,21.293c0.068,0.607-0.598,1.186-1.488,1.288c-0.891,0.098-1.668-0.312-1.741-0.922
			c-0.07-0.605,0.596-1.184,1.489-1.283C33.283,20.272,34.061,20.688,34.131,21.293z"/>
		<path d="M31.044,21.529c0,0,0.02-0.057,0.058-0.152c0.015-0.05,0.055-0.1,0.09-0.162c0.035-0.064,0.09-0.123,0.149-0.185
			c0.052-0.072,0.131-0.119,0.206-0.187c0.082-0.05,0.166-0.116,0.262-0.154c0.094-0.046,0.191-0.089,0.299-0.113
			c0.105-0.039,0.213-0.051,0.32-0.069c0.113-0.009,0.223-0.021,0.332-0.009c0.107-0.003,0.215,0.027,0.316,0.043
			c0.1,0.027,0.201,0.053,0.287,0.098c0.092,0.04,0.176,0.081,0.246,0.131c0.072,0.046,0.133,0.099,0.184,0.152
			c0.051,0.048,0.094,0.094,0.125,0.138c0.059,0.081,0.092,0.131,0.092,0.131s-0.043-0.04-0.113-0.107
			c-0.035-0.039-0.082-0.073-0.137-0.111c-0.053-0.042-0.117-0.08-0.191-0.116c-0.068-0.045-0.152-0.071-0.236-0.102
			c-0.084-0.029-0.18-0.043-0.273-0.066c-0.195-0.029-0.404-0.038-0.609-0.013c-0.102,0.015-0.205,0.026-0.303,0.057
			c-0.1,0.025-0.195,0.055-0.289,0.096c-0.09,0.034-0.172,0.086-0.252,0.124c-0.074,0.053-0.152,0.091-0.212,0.151
			c-0.058,0.056-0.114,0.1-0.157,0.151c-0.043,0.053-0.087,0.094-0.107,0.138C31.074,21.48,31.044,21.529,31.044,21.529z"/>
	</g>
	<g>
		<path d="M28.085,21.99c-0.213,0.722-1.24,1.055-2.292,0.748c-1.06-0.303-1.742-1.135-1.535-1.854
			c0.21-0.724,1.237-1.059,2.294-0.754C27.606,20.437,28.294,21.269,28.085,21.99z"/>
		<path opacity="0.5" d="M27.616,21.685c-0.173,0.588-1.01,0.861-1.872,0.613c-0.859-0.249-1.42-0.93-1.25-1.516
			c0.171-0.59,1.01-0.863,1.872-0.615C27.228,20.418,27.787,21.098,27.616,21.685z"/>
		<path d="M24.676,20.715c0,0,0.042-0.045,0.113-0.116c0.034-0.042,0.088-0.073,0.147-0.114c0.059-0.048,0.129-0.081,0.207-0.117
			c0.08-0.043,0.169-0.057,0.263-0.09c0.096-0.017,0.197-0.044,0.298-0.044c0.106-0.004,0.212-0.004,0.322,0.009
			c0.11,0.007,0.218,0.037,0.326,0.062c0.103,0.035,0.208,0.066,0.305,0.118c0.101,0.039,0.188,0.11,0.278,0.163
			c0.083,0.066,0.165,0.126,0.225,0.199c0.069,0.074,0.129,0.142,0.175,0.219c0.05,0.068,0.088,0.139,0.112,0.207
			c0.029,0.065,0.051,0.123,0.063,0.176c0.022,0.103,0.037,0.159,0.037,0.159s-0.025-0.055-0.066-0.145
			c-0.015-0.047-0.045-0.097-0.083-0.154c-0.031-0.062-0.075-0.119-0.131-0.181c-0.046-0.067-0.113-0.125-0.18-0.186
			c-0.064-0.062-0.15-0.11-0.228-0.165c-0.165-0.103-0.356-0.193-0.556-0.249c-0.099-0.022-0.198-0.053-0.301-0.063
			c-0.102-0.016-0.203-0.027-0.298-0.021c-0.1-0.006-0.193,0.012-0.286,0.017c-0.089,0.02-0.178,0.026-0.251,0.059
			c-0.075,0.027-0.151,0.049-0.208,0.079c-0.057,0.029-0.113,0.052-0.153,0.086C24.722,20.679,24.676,20.715,24.676,20.715z"/>
	</g>
	<path d="M27.418,43.545c-0.69-0.3-1.609,0.271-2.047,1.273c-0.441,1.005-0.237,2.062,0.455,2.364
		c0.691,0.299,1.606-0.271,2.045-1.275C28.309,44.902,28.107,43.846,27.418,43.545z"/>
	<path d="M39.082,35.764c-1-0.669-2.16-1.04-3.268-1.04c-1.385,0-2.563,0.57-3.229,1.561c-0.336,0.493-0.449,0.931-0.352,1.339
		c0.17,0.715,0.973,1.2,1.852,1.7c-0.178,0.479-0.59,1.073-0.947,1.58c-0.604,0.855-1.08,1.529-0.842,2.029l0.035,0.071l2.582,1.727
		l0.115,0.006c0.539,0,0.977-0.683,1.533-1.544c0.332-0.52,0.721-1.116,1.096-1.46c0.723,0.548,1.432,1.023,2.102,1.023
		c0.504,0,0.943-0.269,1.301-0.803C42.309,40.101,41.42,37.324,39.082,35.764z M34.838,38.771c-0.037-0.149-0.109-0.283-0.211-0.4
		c-0.107-0.178-0.268-0.325-0.49-0.438c-0.014-0.007-0.037-0.021-0.057-0.032c0.064-0.226,0.715-0.623,1.619-0.623
		c0.398,0,0.982,0.082,1.51,0.466c0.107,0.078,0.207,0.166,0.301,0.261l0.092,0.059c0.117,0.053,0.238,0.11,0.35,0.179
		c1.064,0.65,1.367,2.015,1.172,2.708c-0.035,0.136-0.088,0.204-0.133,0.234c-0.016-0.012-0.029-0.022-0.045-0.038
		c-0.193-0.168-0.398-0.258-0.607-0.287c-0.1-0.028-0.201-0.053-0.301-0.053c-0.791,0-1.412,0.962-2.012,1.895
		c-0.258,0.396-0.67,1.043-0.887,1.153l-2.072-1.391c0.02-0.236,0.463-0.864,0.736-1.252C34.398,40.359,35.021,39.482,34.838,38.771
		z M39.498,41.934c0.258-0.097,0.465-0.347,0.572-0.724c0.283-1.004-0.102-2.863-1.563-3.751c-0.133-0.08-0.273-0.154-0.42-0.215
		c-0.117-0.115-0.236-0.218-0.359-0.308c-0.568-0.416-1.27-0.635-2.029-0.635c-1.213,0-2.328,0.549-2.49,1.225
		c-0.016,0.066-0.027,0.169-0.008,0.288c-0.078-0.099-0.129-0.194-0.152-0.298c-0.055-0.226,0.029-0.493,0.25-0.819
		c0.525-0.781,1.471-1.229,2.596-1.229c0.938,0,1.93,0.316,2.789,0.891C39.643,37,40.35,37.894,40.67,38.87
		c0.313,0.951,0.219,1.864-0.262,2.579c-0.309,0.46-0.582,0.512-0.758,0.512C39.604,41.961,39.549,41.942,39.498,41.934z"/>
	<path d="M17.969,11.691c-0.681,0.993-1.063,2.146-1.073,3.246c-0.011,1.383,0.548,2.559,1.539,3.231
		c0.491,0.336,0.928,0.456,1.338,0.362c0.719-0.159,1.214-0.959,1.723-1.828c0.482,0.181,1.072,0.599,1.578,0.957
		c0.851,0.607,1.527,1.09,2.029,0.857l0.075-0.035l1.755-2.555l0.007-0.116c0.003-0.538-0.675-0.979-1.538-1.543
		c-0.517-0.335-1.11-0.726-1.456-1.1c0.559-0.72,1.042-1.422,1.051-2.083c0.001-0.505-0.266-0.942-0.798-1.307
		C22.354,8.521,19.558,9.379,17.969,11.691z M20.949,15.947c-0.151,0.037-0.288,0.106-0.406,0.209
		c-0.178,0.104-0.327,0.264-0.444,0.483c-0.005,0.016-0.019,0.037-0.034,0.06c-0.223-0.069-0.616-0.722-0.609-1.625
		c0.003-0.396,0.091-0.974,0.481-1.497c0.084-0.104,0.171-0.205,0.265-0.296l0.059-0.09c0.055-0.118,0.115-0.235,0.187-0.351
		c0.659-1.054,2.032-1.344,2.729-1.142c0.133,0.041,0.201,0.091,0.231,0.136c-0.013,0.015-0.024,0.028-0.04,0.046
		c-0.163,0.188-0.26,0.393-0.291,0.604c-0.034,0.098-0.055,0.193-0.055,0.297c-0.008,0.789,0.95,1.416,1.879,2.02
		c0.4,0.261,1.041,0.68,1.15,0.896l-1.413,2.052c-0.238-0.021-0.864-0.47-1.251-0.745C22.54,16.4,21.663,15.775,20.949,15.947z
		 M24.167,11.336c-0.094-0.258-0.347-0.468-0.723-0.576c-1.003-0.295-2.875,0.074-3.777,1.52c-0.082,0.132-0.157,0.273-0.224,0.419
		c-0.113,0.114-0.219,0.234-0.31,0.354c-0.422,0.563-0.648,1.259-0.656,2.016c-0.01,1.207,0.531,2.324,1.208,2.49
		c0.066,0.016,0.17,0.031,0.288,0.011c-0.1,0.076-0.2,0.126-0.303,0.151c-0.221,0.049-0.491-0.034-0.818-0.258
		c-0.779-0.531-1.22-1.479-1.21-2.596c0.009-0.936,0.334-1.919,0.919-2.771c0.656-0.948,1.559-1.646,2.542-1.957
		c0.954-0.301,1.875-0.201,2.587,0.288c0.455,0.311,0.506,0.58,0.506,0.759C24.195,11.232,24.177,11.285,24.167,11.336z"/>
	<g>
		<path d="M22.772,33.897c-2.851,0-5.172,2.313-5.172,5.153c0,2.84,2.321,5.15,5.172,5.15c2.852,0,5.175-2.311,5.175-5.15
			C27.947,36.21,25.624,33.897,22.772,33.897z M22.772,43.607c-2.521,0-4.576-2.047-4.576-4.557c0-2.514,2.054-4.558,4.576-4.558
			c2.523,0,4.575,2.044,4.575,4.558C27.347,41.561,25.295,43.607,22.772,43.607z"/>
		<ellipse cx="20.046" cy="37.459" rx="0.537" ry="0.543"/>
		<path d="M23.923,35.347c-0.297,0-0.537,0.24-0.537,0.548c0,0.297,0.24,0.538,0.537,0.538c0.296,0,0.539-0.241,0.539-0.538
			C24.462,35.587,24.22,35.347,23.923,35.347z"/>
		<ellipse cx="22.235" cy="36.436" rx="0.282" ry="0.289"/>
		<circle cx="21.538" cy="39.731" r="0.287"/>
		<path d="M24.048,42.18c-0.159,0-0.284,0.127-0.284,0.288c0,0.155,0.125,0.286,0.284,0.286c0.154,0,0.282-0.131,0.282-0.286
			C24.33,42.307,24.202,42.18,24.048,42.18z"/>
		<circle cx="25.014" cy="38.125" r="0.282"/>
		<path d="M23.057,39.298c-0.393,0-0.71,0.323-0.71,0.72c0,0.394,0.317,0.717,0.71,0.717c0.389,0,0.707-0.323,0.707-0.717
			C23.764,39.621,23.446,39.298,23.057,39.298z"/>
		<path d="M19.877,39.522c-0.391,0-0.71,0.317-0.71,0.717c0,0.396,0.319,0.717,0.71,0.717c0.388,0,0.708-0.32,0.708-0.717
			C20.585,39.84,20.265,39.522,19.877,39.522z"/>
		<ellipse cx="21.743" cy="41.972" rx="0.488" ry="0.496"/>
		<circle cx="25.505" cy="40.733" r="0.494"/>
	</g>
	<g>
		<path d="M38.238,9.362c-2.85,0-5.172,2.312-5.172,5.151c0,2.842,2.322,5.152,5.172,5.152c2.854,0,5.178-2.311,5.178-5.152
			C43.416,11.674,41.092,9.362,38.238,9.362z M38.238,19.071c-2.52,0-4.572-2.045-4.572-4.558c0-2.512,2.053-4.557,4.572-4.557
			c2.525,0,4.58,2.045,4.58,4.557C42.818,17.026,40.764,19.071,38.238,19.071z"/>
		<ellipse cx="35.516" cy="12.923" rx="0.537" ry="0.543"/>
		<circle cx="39.395" cy="11.354" r="0.542"/>
		<circle cx="37.704" cy="11.899" r="0.284"/>
		<circle cx="37.008" cy="15.195" r="0.286"/>
		<path d="M39.516,17.646c-0.154,0-0.279,0.127-0.279,0.285c0,0.159,0.125,0.287,0.279,0.287c0.158,0,0.283-0.128,0.283-0.287
			C39.799,17.772,39.674,17.646,39.516,17.646z"/>
		<ellipse cx="40.483" cy="13.588" rx="0.282" ry="0.288"/>
		<path d="M38.527,14.765c-0.395,0-0.713,0.32-0.713,0.717s0.318,0.716,0.713,0.716c0.389,0,0.709-0.319,0.709-0.716
			S38.916,14.765,38.527,14.765z"/>
		<path d="M35.346,14.985c-0.391,0-0.707,0.319-0.707,0.719c0,0.394,0.316,0.716,0.707,0.716c0.387,0,0.709-0.322,0.709-0.716
			C36.055,15.305,35.732,14.985,35.346,14.985z"/>
		<path d="M37.215,16.939c-0.273,0-0.492,0.223-0.492,0.496c0,0.276,0.219,0.494,0.492,0.494c0.27,0,0.488-0.218,0.488-0.494
			C37.703,17.162,37.484,16.939,37.215,16.939z"/>
		<path d="M40.975,15.702c-0.271,0-0.492,0.221-0.492,0.495c0,0.275,0.221,0.494,0.492,0.494c0.268,0,0.486-0.219,0.486-0.494
			C41.461,15.923,41.242,15.702,40.975,15.702z"/>
	</g>
</g>
</svg>
