<?xml version="1.0" encoding="utf-8"?>
<!-- Generator: Adobe Illustrator 16.0.0, SVG Export Plug-In . SVG Version: 6.00 Build 0)  -->
<!DOCTYPE svg PUBLIC "-//W3C//DTD SVG 1.1//EN" "http://www.w3.org/Graphics/SVG/1.1/DTD/svg11.dtd">
<svg version="1.1" id="Calque_1" xmlns="http://www.w3.org/2000/svg" xmlns:xlink="http://www.w3.org/1999/xlink" x="0px" y="0px"
	 width="58.833px" height="53.5px" viewBox="0 0 58.833 53.5" enable-background="new 0 0 58.833 53.5" xml:space="preserve">
<g>
	<path fill="#333333" stroke="#1A171B" stroke-width="0.5988" stroke-miterlimit="10" d="M33.508,27.842
		c-0.76,0.513-1.52,1.028-2.284,1.536c-0.642,0.427-1.231,0.667-1.757-0.12c-0.271-0.404-0.445-0.879-0.563-1.349
		c-0.194-0.782-0.484-2.338,0.549-2.49c1.05-0.155,2.414,0.319,3.413,0.624c0.689,0.21,0.984-0.87,0.298-1.08
		c-0.868-0.265-1.745-0.465-2.646-0.574c-0.595-0.072-1.408-0.26-1.98,0.021c-1.12,0.55-0.971,2.461-0.784,3.447
		c0.215,1.139,0.871,2.846,2.161,3.122c0.663,0.142,1.178-0.173,1.711-0.524c0.82-0.543,1.632-1.098,2.446-1.646
		C34.664,28.41,34.107,27.439,33.508,27.842z"/>
	<path fill="#333333" stroke="#1A171B" stroke-width="0.5988" stroke-miterlimit="10" d="M43.061,22.044
		c-1.257,0.032-1.604,1.348-1.51,2.381c0.063,0.712,1.179,0.719,1.113,0c-0.031-0.351-0.129-1.222,0.412-1.262
		c0.455-0.034,0.637,0.595,0.666,0.945c0.064,0.712,1.18,0.719,1.116,0C44.771,23.113,44.199,22.016,43.061,22.044z"/>
	<path fill="#333333" stroke="#1A171B" stroke-width="0.5988" stroke-miterlimit="10" d="M52.39,26.656
		c-0.245-0.182-0.675-0.178-1.108-0.122c-2.114-6.419-7.197-11.652-13.957-12.882c-0.051-0.035-0.1-0.069-0.168-0.089
		c-7.235-2.159-13.772-0.058-19.732,4.339c-0.296,0.218-0.425,0.78,0,0.967c1.105,0.487,1.914,0.962,2.873,1.757
		c-1.657,1.413-3.241,2.851-4.757,4.132c-1.682-0.646-2.906-1.901-4.408-2.864c-1.25-0.803-2.608-1.229-4.088-1.283
		c-0.275-0.01-0.442,0.148-0.506,0.348c-0.1,0.188-0.094,0.42,0.112,0.608c3.481,3.18,1.538,7.1-0.669,10.345
		c-0.163,0.24-0.1,0.471,0.054,0.626c0.088,0.126,0.227,0.218,0.428,0.218c3.035,0.004,6.251-1.823,8.665-3.67
		c0.916,1.359,1.923,2.635,3.011,3.803c-0.041,0.035-0.083,0.064-0.116,0.115c-0.449,0.676-0.907,1.273-1.479,1.848
		c-0.169,0.171-0.218,0.471-0.087,0.679c3.547,5.645,12.29,5.897,18.117,4.646c0.047-0.01,0.078-0.033,0.115-0.051
		c1.934-0.154,3.916-0.633,5.924-1.486c0.035-0.011,0.067-0.021,0.099-0.039c0.007-0.003,0.011-0.004,0.016-0.006
		c4.44-1.916,8.356-5.064,11.233-8.957C52.604,28.762,53.58,27.537,52.39,26.656z M21.1,19.846c-0.741-0.615-1.48-1.12-2.303-1.552
		c3.997-2.781,8.255-4.494,12.833-4.453c-3.802,0.954-7.278,3.402-10.482,6.066C21.13,19.888,21.124,19.865,21.1,19.846z
		 M24.737,39.283c-1.845-0.352-4.008-1.141-5.524-2.279c-1.87-1.402-1.293-1.855-0.305-3.32c2.917,2.896,6.357,5.029,10.117,5.968
		C27.562,39.658,26.105,39.545,24.737,39.283z M48.033,32.409c-2.112,2.015-4.627,3.782-7.34,4.995
		c-3.564-4.635-4.902-10.055-4.171-15.916c0.089-0.713-1.028-0.707-1.116,0c-0.752,6.027,0.671,11.561,4.227,16.349
		c-0.615,0.235-1.235,0.453-1.864,0.626c-9.258,2.548-17.147-2.913-22.03-10.468c-0.158-0.243-0.407-0.29-0.625-0.228
		c-0.039,0.008-0.076,0.026-0.114,0.044c-0.018,0.01-0.035,0.016-0.052,0.026c-0.028,0.017-0.057,0.022-0.084,0.046
		c-1.96,1.572-4.684,3.281-7.321,3.668c1.926-3.092,3.126-6.568,0.965-9.573c2.577,0.762,4.372,3.081,6.988,3.959
		c0.228,0.076,0.406,0,0.525-0.135c0.005-0.004,0.012-0.005,0.017-0.009c3.007-2.511,6.01-5.033,9.165-7.358
		c3.077-2.267,6.279-4.203,10.256-3.904c7.053,0.529,12.524,5.678,14.719,12.213c-0.053,0.011-0.105,0.021-0.141,0.025
		c-1.408,0.141-2.857-0.011-4.269-0.029c-0.719-0.01-0.719,1.109,0,1.119c0.888,0.013,1.78,0.063,2.669,0.064
		c0.443,0,2.086-0.314,2.43-0.139C52.307,28.52,48.71,31.766,48.033,32.409z"/>
	<path fill="#333333" stroke="#1A171B" stroke-width="0.5988" stroke-miterlimit="10" d="M34.877,15.811
		c-0.719-0.014-0.719,1.105,0,1.12c2.113,0.042,3.656,0.71,5.229,2.117c0.534,0.478,1.326-0.311,0.789-0.792
		C39.108,16.658,37.275,15.859,34.877,15.811z"/>
	<path fill="#333333" stroke="#1A171B" stroke-width="0.5988" stroke-miterlimit="10" d="M32.385,17.199c0.717,0,0.719-1.12,0-1.12
		S31.666,17.199,32.385,17.199z"/>
</g>
</svg>
